G04 #@! TF.GenerationSoftware,KiCad,Pcbnew,9.0.0*
G04 #@! TF.CreationDate,2025-04-07T23:04:34+01:00*
G04 #@! TF.ProjectId,ephys-test-module-128,65706879-732d-4746-9573-742d6d6f6475,A*
G04 #@! TF.SameCoordinates,Original*
G04 #@! TF.FileFunction,Paste,Bot*
G04 #@! TF.FilePolarity,Positive*
%FSLAX46Y46*%
G04 Gerber Fmt 4.6, Leading zero omitted, Abs format (unit mm)*
G04 Created by KiCad (PCBNEW 9.0.0) date 2025-04-07 23:04:34*
%MOMM*%
%LPD*%
G01*
G04 APERTURE LIST*
%ADD10R,2.273000X0.410000*%
G04 APERTURE END LIST*
D10*
G04 #@! TO.C,J2*
X123613500Y-84400000D03*
X117886500Y-84400000D03*
X123613500Y-85200000D03*
X117886500Y-85200000D03*
X123613500Y-86000000D03*
X117886500Y-86000000D03*
X123613500Y-86800000D03*
X117886500Y-86800000D03*
X123613500Y-87600000D03*
X117886500Y-87600000D03*
X123613500Y-88400000D03*
X117886500Y-88400000D03*
X123613500Y-89200000D03*
X117886500Y-89200000D03*
X123613500Y-90000000D03*
X117886500Y-90000000D03*
X123613500Y-90800000D03*
X117886500Y-90800000D03*
X123613500Y-91600000D03*
X117886500Y-91600000D03*
X123613500Y-92400000D03*
X117886500Y-92400000D03*
X123613500Y-93200000D03*
X117886500Y-93200000D03*
X123613500Y-94000000D03*
X117886500Y-94000000D03*
X123613500Y-94800000D03*
X117886500Y-94800000D03*
X123613500Y-95600000D03*
X117886500Y-95600000D03*
X123613500Y-96400000D03*
X117886500Y-96400000D03*
X123613500Y-97200000D03*
X117886500Y-97200000D03*
X123613500Y-98000000D03*
X117886500Y-98000000D03*
X123613500Y-98800000D03*
X117886500Y-98800000D03*
X123613500Y-99600000D03*
X117886500Y-99600000D03*
X123613500Y-100400000D03*
X117886500Y-100400000D03*
X123613500Y-101200000D03*
X117886500Y-101200000D03*
X123613500Y-102000000D03*
X117886500Y-102000000D03*
X123613500Y-102800000D03*
X117886500Y-102800000D03*
X123613500Y-103600000D03*
X117886500Y-103600000D03*
X123613500Y-104400000D03*
X117886500Y-104400000D03*
X123613500Y-105200000D03*
X117886500Y-105200000D03*
X123613500Y-106000000D03*
X117886500Y-106000000D03*
X123613500Y-106800000D03*
X117886500Y-106800000D03*
X123613500Y-107600000D03*
X117886500Y-107600000D03*
X123613500Y-108400000D03*
X117886500Y-108400000D03*
X123613500Y-109200000D03*
X117886500Y-109200000D03*
X123613500Y-110000000D03*
X117886500Y-110000000D03*
X123613500Y-110800000D03*
X117886500Y-110800000D03*
X123613500Y-111600000D03*
X117886500Y-111600000D03*
X123613500Y-112400000D03*
X117886500Y-112400000D03*
X123613500Y-113200000D03*
X117886500Y-113200000D03*
X123613500Y-114000000D03*
X117886500Y-114000000D03*
X123613500Y-114800000D03*
X117886500Y-114800000D03*
X123613500Y-115600000D03*
X117886500Y-115600000D03*
G04 #@! TD*
G04 #@! TO.C,J3*
X193614250Y-84400000D03*
X187887250Y-84400000D03*
X193614250Y-85200000D03*
X187887250Y-85200000D03*
X193614250Y-86000000D03*
X187887250Y-86000000D03*
X193614250Y-86800000D03*
X187887250Y-86800000D03*
X193614250Y-87600000D03*
X187887250Y-87600000D03*
X193614250Y-88400000D03*
X187887250Y-88400000D03*
X193614250Y-89200000D03*
X187887250Y-89200000D03*
X193614250Y-90000000D03*
X187887250Y-90000000D03*
X193614250Y-90800000D03*
X187887250Y-90800000D03*
X193614250Y-91600000D03*
X187887250Y-91600000D03*
X193614250Y-92400000D03*
X187887250Y-92400000D03*
X193614250Y-93200000D03*
X187887250Y-93200000D03*
X193614250Y-94000000D03*
X187887250Y-94000000D03*
X193614250Y-94800000D03*
X187887250Y-94800000D03*
X193614250Y-95600000D03*
X187887250Y-95600000D03*
X193614250Y-96400000D03*
X187887250Y-96400000D03*
X193614250Y-97200000D03*
X187887250Y-97200000D03*
X193614250Y-98000000D03*
X187887250Y-98000000D03*
X193614250Y-98800000D03*
X187887250Y-98800000D03*
X193614250Y-99600000D03*
X187887250Y-99600000D03*
X193614250Y-100400000D03*
X187887250Y-100400000D03*
X193614250Y-101200000D03*
X187887250Y-101200000D03*
X193614250Y-102000000D03*
X187887250Y-102000000D03*
X193614250Y-102800000D03*
X187887250Y-102800000D03*
X193614250Y-103600000D03*
X187887250Y-103600000D03*
X193614250Y-104400000D03*
X187887250Y-104400000D03*
X193614250Y-105200000D03*
X187887250Y-105200000D03*
X193614250Y-106000000D03*
X187887250Y-106000000D03*
X193614250Y-106800000D03*
X187887250Y-106800000D03*
X193614250Y-107600000D03*
X187887250Y-107600000D03*
X193614250Y-108400000D03*
X187887250Y-108400000D03*
X193614250Y-109200000D03*
X187887250Y-109200000D03*
X193614250Y-110000000D03*
X187887250Y-110000000D03*
X193614250Y-110800000D03*
X187887250Y-110800000D03*
X193614250Y-111600000D03*
X187887250Y-111600000D03*
X193614250Y-112400000D03*
X187887250Y-112400000D03*
X193614250Y-113200000D03*
X187887250Y-113200000D03*
X193614250Y-114000000D03*
X187887250Y-114000000D03*
X193614250Y-114800000D03*
X187887250Y-114800000D03*
X193614250Y-115600000D03*
X187887250Y-115600000D03*
G04 #@! TD*
M02*
