M48
; DRILL file {KiCad 9.0.0} date 2025-04-07T23:04:31+0100
; FORMAT={-:-/ absolute / inch / decimal}
; #@! TF.CreationDate,2025-04-07T23:04:31+01:00
; #@! TF.GenerationSoftware,Kicad,Pcbnew,9.0.0
; #@! TF.FileFunction,Plated,1,2,PTH
FMAT,2
INCH
; #@! TA.AperFunction,Plated,PTH,ViaDrill
T1C0.0079
; #@! TA.AperFunction,Plated,PTH,ViaDrill
T2C0.0087
%
G90
G05
T1
X4.1339Y-5.2677
X4.4321Y-3.6385
X4.4508Y-4.2047
X4.5433Y-3.9252
X4.5657Y-5.187
X4.5669Y-3.3406
X4.5689Y-4.5197
X4.5748Y-3.1654
X4.6713Y-4.6949
X4.752Y-4.4882
X4.7539Y-3.3445
X4.7539Y-3.6398
X4.7539Y-3.9193
X4.7539Y-4.2047
X4.7854Y-4.5512
X4.7862Y-5.0906
X4.874Y-4.6949
X4.9035Y-5.0374
X4.937Y-4.5197
X4.9449Y-4.4862
X4.9478Y-3.9213
X4.9587Y-3.6378
X4.9606Y-3.3445
X4.9656Y-4.2057
X4.9823Y-4.685
X5.19Y-4.3583
X5.2126Y-3.3071
X5.2579Y-4.5482
X5.3159Y-4.0935
X5.316Y-3.715
X5.316Y-3.7465
X5.316Y-3.778
X5.316Y-3.8095
X5.316Y-3.841
X5.316Y-3.8725
X5.316Y-3.9355
X5.316Y-3.967
X5.316Y-3.9985
X5.316Y-4.03
X5.316Y-4.0615
X5.316Y-4.156
X5.316Y-4.1875
X5.3166Y-3.9039
X5.3173Y-4.1248
X5.3425Y-4.2146
X5.3436Y-3.6993
X5.3436Y-3.7308
X5.3436Y-3.7623
X5.3436Y-3.7938
X5.3436Y-3.8253
X5.3436Y-3.8568
X5.3436Y-3.8882
X5.3436Y-3.9197
X5.3436Y-3.9512
X5.3436Y-3.9827
X5.3436Y-4.0142
X5.3436Y-4.0457
X5.3436Y-4.0772
X5.3436Y-4.1087
X5.3436Y-4.1402
X5.3436Y-4.1717
X5.4425Y-4.1846
X5.4587Y-3.6358
X5.5394Y-4.2382
X5.5394Y-4.687
X5.5413Y-3.1693
X5.5595Y-4.1717
X5.5597Y-3.6993
X5.5597Y-3.7308
X5.5597Y-3.7623
X5.5597Y-3.7938
X5.5597Y-3.8253
X5.5597Y-3.8568
X5.5597Y-3.8882
X5.5597Y-3.9197
X5.5597Y-3.9512
X5.5597Y-3.9827
X5.5597Y-4.0142
X5.5597Y-4.0457
X5.5597Y-4.0772
X5.5597Y-4.1087
X5.5597Y-4.1402
X5.5812Y-3.6835
X5.5871Y-4.156
X5.5873Y-3.715
X5.5873Y-3.7465
X5.5873Y-3.778
X5.5873Y-3.8095
X5.5873Y-3.841
X5.5873Y-3.8725
X5.5873Y-3.904
X5.5873Y-3.9355
X5.5873Y-3.967
X5.5873Y-3.9985
X5.5873Y-4.03
X5.5873Y-4.0615
X5.5873Y-4.093
X5.5873Y-4.1245
X5.7972Y-2.7756
X5.9272Y-3.5039
X5.9331Y-2.9783
X5.9449Y-4.1339
X5.9506Y-4.9901
X6.0728Y-5.2972
X6.3061Y-3.748
X6.3101Y-3.1929
X6.3199Y-4.5768
X6.6733Y-3.746
X6.6733Y-3.7775
X6.6733Y-3.809
X6.6733Y-3.8405
X6.6733Y-3.872
X6.6733Y-3.9035
X6.6733Y-3.935
X6.6733Y-3.9665
X6.6733Y-3.998
X6.6733Y-4.0295
X6.6733Y-4.061
X6.6733Y-4.0925
X6.6733Y-4.124
X6.6733Y-4.1555
X6.6735Y-3.7145
X6.6794Y-4.1869
X6.7008Y-3.7303
X6.7008Y-3.7932
X6.7008Y-3.8247
X6.7008Y-3.8562
X6.7008Y-3.8877
X6.7008Y-3.9192
X6.7008Y-3.9507
X6.7008Y-3.9822
X6.7008Y-4.0137
X6.7008Y-4.0452
X6.7008Y-4.0767
X6.7008Y-4.1082
X6.7008Y-4.1397
X6.7008Y-4.1712
X6.701Y-3.6988
X6.7014Y-3.7618
X6.7018Y-3.6555
X6.7031Y-4.4563
X6.7038Y-4.2244
X6.7215Y-3.1929
X6.7313Y-4.7126
X6.8209Y-3.6447
X6.8317Y-3.4508
X6.8349Y-4.2406
X6.9046Y-3.6299
X6.9207Y-3.6835
X6.9207Y-3.715
X6.9207Y-3.7465
X6.9207Y-3.778
X6.9207Y-3.8095
X6.9207Y-3.841
X6.9207Y-3.8725
X6.9207Y-3.904
X6.9207Y-3.9355
X6.9207Y-3.967
X6.9207Y-3.9985
X6.9207Y-4.03
X6.9207Y-4.0615
X6.9207Y-4.093
X6.9207Y-4.1245
X6.9207Y-4.156
X6.9431Y-4.1736
X6.9447Y-4.1098
X6.9483Y-3.6993
X6.9483Y-3.7308
X6.9483Y-3.7623
X6.9483Y-3.7938
X6.9483Y-3.8253
X6.9483Y-3.8568
X6.9483Y-3.8882
X6.9483Y-3.9197
X6.9483Y-3.9512
X6.9483Y-3.9827
X6.9483Y-4.0142
X6.9483Y-4.0457
X6.9483Y-4.1421
X6.9483Y-4.0778
X6.9577Y-4.2346
X6.9853Y-4.5157
X7.0502Y-3.2972
X7.2864Y-4.5315
X7.2992Y-4.2047
X7.3209Y-3.9213
X7.3258Y-4.7224
X7.5069Y-3.3366
X7.5069Y-3.6378
X7.5089Y-4.5413
X7.5099Y-3.9213
X7.5148Y-4.2028
X7.5325Y-3.187
X7.6762Y-4.6969
X7.688Y-3.2933
X7.7244Y-3.9213
X7.7766Y-3.6368
X7.8032Y-4.2037
T2
X4.5965Y-4.624
M30
