G04 #@! TF.GenerationSoftware,KiCad,Pcbnew,9.0.0*
G04 #@! TF.CreationDate,2025-04-07T23:04:34+01:00*
G04 #@! TF.ProjectId,ephys-test-module-128,65706879-732d-4746-9573-742d6d6f6475,A*
G04 #@! TF.SameCoordinates,Original*
G04 #@! TF.FileFunction,Legend,Top*
G04 #@! TF.FilePolarity,Positive*
%FSLAX46Y46*%
G04 Gerber Fmt 4.6, Leading zero omitted, Abs format (unit mm)*
G04 Created by KiCad (PCBNEW 9.0.0) date 2025-04-07 23:04:34*
%MOMM*%
%LPD*%
G01*
G04 APERTURE LIST*
%ADD10C,0.150000*%
%ADD11C,0.300000*%
%ADD12C,0.120000*%
%ADD13C,0.100000*%
G04 APERTURE END LIST*
D10*
X146540000Y-99970000D02*
G75*
G02*
X128540000Y-99970000I-9000000J0D01*
G01*
X128540000Y-99970000D02*
G75*
G02*
X146540000Y-99970000I9000000J0D01*
G01*
X182915750Y-99950000D02*
G75*
G02*
X164915750Y-99950000I-9000000J0D01*
G01*
X164915750Y-99950000D02*
G75*
G02*
X182915750Y-99950000I9000000J0D01*
G01*
X147973990Y-98652856D02*
X147973990Y-98319523D01*
X147450180Y-98319523D02*
X148450180Y-98319523D01*
X148450180Y-98319523D02*
X148450180Y-98795713D01*
X147450180Y-99176666D02*
X148116847Y-99176666D01*
X147926371Y-99176666D02*
X148021609Y-99224285D01*
X148021609Y-99224285D02*
X148069228Y-99271904D01*
X148069228Y-99271904D02*
X148116847Y-99367142D01*
X148116847Y-99367142D02*
X148116847Y-99462380D01*
X147450180Y-99938571D02*
X147497800Y-99843333D01*
X147497800Y-99843333D02*
X147545419Y-99795714D01*
X147545419Y-99795714D02*
X147640657Y-99748095D01*
X147640657Y-99748095D02*
X147926371Y-99748095D01*
X147926371Y-99748095D02*
X148021609Y-99795714D01*
X148021609Y-99795714D02*
X148069228Y-99843333D01*
X148069228Y-99843333D02*
X148116847Y-99938571D01*
X148116847Y-99938571D02*
X148116847Y-100081428D01*
X148116847Y-100081428D02*
X148069228Y-100176666D01*
X148069228Y-100176666D02*
X148021609Y-100224285D01*
X148021609Y-100224285D02*
X147926371Y-100271904D01*
X147926371Y-100271904D02*
X147640657Y-100271904D01*
X147640657Y-100271904D02*
X147545419Y-100224285D01*
X147545419Y-100224285D02*
X147497800Y-100176666D01*
X147497800Y-100176666D02*
X147450180Y-100081428D01*
X147450180Y-100081428D02*
X147450180Y-99938571D01*
X148116847Y-100700476D02*
X147450180Y-100700476D01*
X148021609Y-100700476D02*
X148069228Y-100748095D01*
X148069228Y-100748095D02*
X148116847Y-100843333D01*
X148116847Y-100843333D02*
X148116847Y-100986190D01*
X148116847Y-100986190D02*
X148069228Y-101081428D01*
X148069228Y-101081428D02*
X147973990Y-101129047D01*
X147973990Y-101129047D02*
X147450180Y-101129047D01*
X148116847Y-101462381D02*
X148116847Y-101843333D01*
X148450180Y-101605238D02*
X147593038Y-101605238D01*
X147593038Y-101605238D02*
X147497800Y-101652857D01*
X147497800Y-101652857D02*
X147450180Y-101748095D01*
X147450180Y-101748095D02*
X147450180Y-101843333D01*
X127543990Y-98235714D02*
X127496371Y-98378571D01*
X127496371Y-98378571D02*
X127448752Y-98426190D01*
X127448752Y-98426190D02*
X127353514Y-98473809D01*
X127353514Y-98473809D02*
X127210657Y-98473809D01*
X127210657Y-98473809D02*
X127115419Y-98426190D01*
X127115419Y-98426190D02*
X127067800Y-98378571D01*
X127067800Y-98378571D02*
X127020180Y-98283333D01*
X127020180Y-98283333D02*
X127020180Y-97902381D01*
X127020180Y-97902381D02*
X128020180Y-97902381D01*
X128020180Y-97902381D02*
X128020180Y-98235714D01*
X128020180Y-98235714D02*
X127972561Y-98330952D01*
X127972561Y-98330952D02*
X127924942Y-98378571D01*
X127924942Y-98378571D02*
X127829704Y-98426190D01*
X127829704Y-98426190D02*
X127734466Y-98426190D01*
X127734466Y-98426190D02*
X127639228Y-98378571D01*
X127639228Y-98378571D02*
X127591609Y-98330952D01*
X127591609Y-98330952D02*
X127543990Y-98235714D01*
X127543990Y-98235714D02*
X127543990Y-97902381D01*
X127020180Y-99330952D02*
X127543990Y-99330952D01*
X127543990Y-99330952D02*
X127639228Y-99283333D01*
X127639228Y-99283333D02*
X127686847Y-99188095D01*
X127686847Y-99188095D02*
X127686847Y-98997619D01*
X127686847Y-98997619D02*
X127639228Y-98902381D01*
X127067800Y-99330952D02*
X127020180Y-99235714D01*
X127020180Y-99235714D02*
X127020180Y-98997619D01*
X127020180Y-98997619D02*
X127067800Y-98902381D01*
X127067800Y-98902381D02*
X127163038Y-98854762D01*
X127163038Y-98854762D02*
X127258276Y-98854762D01*
X127258276Y-98854762D02*
X127353514Y-98902381D01*
X127353514Y-98902381D02*
X127401133Y-98997619D01*
X127401133Y-98997619D02*
X127401133Y-99235714D01*
X127401133Y-99235714D02*
X127448752Y-99330952D01*
X127067800Y-100235714D02*
X127020180Y-100140476D01*
X127020180Y-100140476D02*
X127020180Y-99950000D01*
X127020180Y-99950000D02*
X127067800Y-99854762D01*
X127067800Y-99854762D02*
X127115419Y-99807143D01*
X127115419Y-99807143D02*
X127210657Y-99759524D01*
X127210657Y-99759524D02*
X127496371Y-99759524D01*
X127496371Y-99759524D02*
X127591609Y-99807143D01*
X127591609Y-99807143D02*
X127639228Y-99854762D01*
X127639228Y-99854762D02*
X127686847Y-99950000D01*
X127686847Y-99950000D02*
X127686847Y-100140476D01*
X127686847Y-100140476D02*
X127639228Y-100235714D01*
X127020180Y-100664286D02*
X128020180Y-100664286D01*
X127401133Y-100759524D02*
X127020180Y-101045238D01*
X127686847Y-101045238D02*
X127305895Y-100664286D01*
D11*
X106573429Y-72843472D02*
X107140096Y-72843472D01*
X107382953Y-73733948D02*
X106573429Y-73733948D01*
X106573429Y-73733948D02*
X106573429Y-72033948D01*
X106573429Y-72033948D02*
X107382953Y-72033948D01*
X108111524Y-72600615D02*
X108111524Y-74300615D01*
X108111524Y-72681567D02*
X108273429Y-72600615D01*
X108273429Y-72600615D02*
X108597239Y-72600615D01*
X108597239Y-72600615D02*
X108759143Y-72681567D01*
X108759143Y-72681567D02*
X108840096Y-72762519D01*
X108840096Y-72762519D02*
X108921048Y-72924424D01*
X108921048Y-72924424D02*
X108921048Y-73410138D01*
X108921048Y-73410138D02*
X108840096Y-73572043D01*
X108840096Y-73572043D02*
X108759143Y-73652996D01*
X108759143Y-73652996D02*
X108597239Y-73733948D01*
X108597239Y-73733948D02*
X108273429Y-73733948D01*
X108273429Y-73733948D02*
X108111524Y-73652996D01*
X109649619Y-73733948D02*
X109649619Y-72033948D01*
X110378191Y-73733948D02*
X110378191Y-72843472D01*
X110378191Y-72843472D02*
X110297238Y-72681567D01*
X110297238Y-72681567D02*
X110135334Y-72600615D01*
X110135334Y-72600615D02*
X109892477Y-72600615D01*
X109892477Y-72600615D02*
X109730572Y-72681567D01*
X109730572Y-72681567D02*
X109649619Y-72762519D01*
X111025810Y-72600615D02*
X111430572Y-73733948D01*
X111835333Y-72600615D02*
X111430572Y-73733948D01*
X111430572Y-73733948D02*
X111268667Y-74138710D01*
X111268667Y-74138710D02*
X111187714Y-74219662D01*
X111187714Y-74219662D02*
X111025810Y-74300615D01*
X112402000Y-73652996D02*
X112563905Y-73733948D01*
X112563905Y-73733948D02*
X112887714Y-73733948D01*
X112887714Y-73733948D02*
X113049619Y-73652996D01*
X113049619Y-73652996D02*
X113130571Y-73491091D01*
X113130571Y-73491091D02*
X113130571Y-73410138D01*
X113130571Y-73410138D02*
X113049619Y-73248234D01*
X113049619Y-73248234D02*
X112887714Y-73167281D01*
X112887714Y-73167281D02*
X112644857Y-73167281D01*
X112644857Y-73167281D02*
X112482952Y-73086329D01*
X112482952Y-73086329D02*
X112402000Y-72924424D01*
X112402000Y-72924424D02*
X112402000Y-72843472D01*
X112402000Y-72843472D02*
X112482952Y-72681567D01*
X112482952Y-72681567D02*
X112644857Y-72600615D01*
X112644857Y-72600615D02*
X112887714Y-72600615D01*
X112887714Y-72600615D02*
X113049619Y-72681567D01*
X114911523Y-72033948D02*
X115882952Y-72033948D01*
X115397238Y-73733948D02*
X115397238Y-72033948D01*
X117097237Y-73652996D02*
X116935333Y-73733948D01*
X116935333Y-73733948D02*
X116611523Y-73733948D01*
X116611523Y-73733948D02*
X116449618Y-73652996D01*
X116449618Y-73652996D02*
X116368666Y-73491091D01*
X116368666Y-73491091D02*
X116368666Y-72843472D01*
X116368666Y-72843472D02*
X116449618Y-72681567D01*
X116449618Y-72681567D02*
X116611523Y-72600615D01*
X116611523Y-72600615D02*
X116935333Y-72600615D01*
X116935333Y-72600615D02*
X117097237Y-72681567D01*
X117097237Y-72681567D02*
X117178190Y-72843472D01*
X117178190Y-72843472D02*
X117178190Y-73005376D01*
X117178190Y-73005376D02*
X116368666Y-73167281D01*
X117825809Y-73652996D02*
X117987714Y-73733948D01*
X117987714Y-73733948D02*
X118311523Y-73733948D01*
X118311523Y-73733948D02*
X118473428Y-73652996D01*
X118473428Y-73652996D02*
X118554380Y-73491091D01*
X118554380Y-73491091D02*
X118554380Y-73410138D01*
X118554380Y-73410138D02*
X118473428Y-73248234D01*
X118473428Y-73248234D02*
X118311523Y-73167281D01*
X118311523Y-73167281D02*
X118068666Y-73167281D01*
X118068666Y-73167281D02*
X117906761Y-73086329D01*
X117906761Y-73086329D02*
X117825809Y-72924424D01*
X117825809Y-72924424D02*
X117825809Y-72843472D01*
X117825809Y-72843472D02*
X117906761Y-72681567D01*
X117906761Y-72681567D02*
X118068666Y-72600615D01*
X118068666Y-72600615D02*
X118311523Y-72600615D01*
X118311523Y-72600615D02*
X118473428Y-72681567D01*
X119040094Y-72600615D02*
X119687713Y-72600615D01*
X119282951Y-72033948D02*
X119282951Y-73491091D01*
X119282951Y-73491091D02*
X119363904Y-73652996D01*
X119363904Y-73652996D02*
X119525809Y-73733948D01*
X119525809Y-73733948D02*
X119687713Y-73733948D01*
X121549618Y-73733948D02*
X121549618Y-72033948D01*
X121549618Y-72033948D02*
X122116285Y-73248234D01*
X122116285Y-73248234D02*
X122682952Y-72033948D01*
X122682952Y-72033948D02*
X122682952Y-73733948D01*
X123735333Y-73733948D02*
X123573428Y-73652996D01*
X123573428Y-73652996D02*
X123492475Y-73572043D01*
X123492475Y-73572043D02*
X123411523Y-73410138D01*
X123411523Y-73410138D02*
X123411523Y-72924424D01*
X123411523Y-72924424D02*
X123492475Y-72762519D01*
X123492475Y-72762519D02*
X123573428Y-72681567D01*
X123573428Y-72681567D02*
X123735333Y-72600615D01*
X123735333Y-72600615D02*
X123978190Y-72600615D01*
X123978190Y-72600615D02*
X124140094Y-72681567D01*
X124140094Y-72681567D02*
X124221047Y-72762519D01*
X124221047Y-72762519D02*
X124301999Y-72924424D01*
X124301999Y-72924424D02*
X124301999Y-73410138D01*
X124301999Y-73410138D02*
X124221047Y-73572043D01*
X124221047Y-73572043D02*
X124140094Y-73652996D01*
X124140094Y-73652996D02*
X123978190Y-73733948D01*
X123978190Y-73733948D02*
X123735333Y-73733948D01*
X125759142Y-73733948D02*
X125759142Y-72033948D01*
X125759142Y-73652996D02*
X125597237Y-73733948D01*
X125597237Y-73733948D02*
X125273428Y-73733948D01*
X125273428Y-73733948D02*
X125111523Y-73652996D01*
X125111523Y-73652996D02*
X125030570Y-73572043D01*
X125030570Y-73572043D02*
X124949618Y-73410138D01*
X124949618Y-73410138D02*
X124949618Y-72924424D01*
X124949618Y-72924424D02*
X125030570Y-72762519D01*
X125030570Y-72762519D02*
X125111523Y-72681567D01*
X125111523Y-72681567D02*
X125273428Y-72600615D01*
X125273428Y-72600615D02*
X125597237Y-72600615D01*
X125597237Y-72600615D02*
X125759142Y-72681567D01*
X127297237Y-72600615D02*
X127297237Y-73733948D01*
X126568665Y-72600615D02*
X126568665Y-73491091D01*
X126568665Y-73491091D02*
X126649618Y-73652996D01*
X126649618Y-73652996D02*
X126811523Y-73733948D01*
X126811523Y-73733948D02*
X127054380Y-73733948D01*
X127054380Y-73733948D02*
X127216284Y-73652996D01*
X127216284Y-73652996D02*
X127297237Y-73572043D01*
X128349618Y-73733948D02*
X128187713Y-73652996D01*
X128187713Y-73652996D02*
X128106760Y-73491091D01*
X128106760Y-73491091D02*
X128106760Y-72033948D01*
X129644855Y-73652996D02*
X129482951Y-73733948D01*
X129482951Y-73733948D02*
X129159141Y-73733948D01*
X129159141Y-73733948D02*
X128997236Y-73652996D01*
X128997236Y-73652996D02*
X128916284Y-73491091D01*
X128916284Y-73491091D02*
X128916284Y-72843472D01*
X128916284Y-72843472D02*
X128997236Y-72681567D01*
X128997236Y-72681567D02*
X129159141Y-72600615D01*
X129159141Y-72600615D02*
X129482951Y-72600615D01*
X129482951Y-72600615D02*
X129644855Y-72681567D01*
X129644855Y-72681567D02*
X129725808Y-72843472D01*
X129725808Y-72843472D02*
X129725808Y-73005376D01*
X129725808Y-73005376D02*
X128916284Y-73167281D01*
X106573429Y-76470853D02*
X106573429Y-74770853D01*
X106573429Y-74770853D02*
X106978191Y-74770853D01*
X106978191Y-74770853D02*
X107221048Y-74851805D01*
X107221048Y-74851805D02*
X107382953Y-75013710D01*
X107382953Y-75013710D02*
X107463906Y-75175615D01*
X107463906Y-75175615D02*
X107544858Y-75499424D01*
X107544858Y-75499424D02*
X107544858Y-75742281D01*
X107544858Y-75742281D02*
X107463906Y-76066091D01*
X107463906Y-76066091D02*
X107382953Y-76227996D01*
X107382953Y-76227996D02*
X107221048Y-76389901D01*
X107221048Y-76389901D02*
X106978191Y-76470853D01*
X106978191Y-76470853D02*
X106573429Y-76470853D01*
X109002001Y-75337520D02*
X109002001Y-76470853D01*
X108273429Y-75337520D02*
X108273429Y-76227996D01*
X108273429Y-76227996D02*
X108354382Y-76389901D01*
X108354382Y-76389901D02*
X108516287Y-76470853D01*
X108516287Y-76470853D02*
X108759144Y-76470853D01*
X108759144Y-76470853D02*
X108921048Y-76389901D01*
X108921048Y-76389901D02*
X109002001Y-76308948D01*
X110540096Y-76470853D02*
X110540096Y-75580377D01*
X110540096Y-75580377D02*
X110459143Y-75418472D01*
X110459143Y-75418472D02*
X110297239Y-75337520D01*
X110297239Y-75337520D02*
X109973429Y-75337520D01*
X109973429Y-75337520D02*
X109811524Y-75418472D01*
X110540096Y-76389901D02*
X110378191Y-76470853D01*
X110378191Y-76470853D02*
X109973429Y-76470853D01*
X109973429Y-76470853D02*
X109811524Y-76389901D01*
X109811524Y-76389901D02*
X109730572Y-76227996D01*
X109730572Y-76227996D02*
X109730572Y-76066091D01*
X109730572Y-76066091D02*
X109811524Y-75904186D01*
X109811524Y-75904186D02*
X109973429Y-75823234D01*
X109973429Y-75823234D02*
X110378191Y-75823234D01*
X110378191Y-75823234D02*
X110540096Y-75742281D01*
X111592477Y-76470853D02*
X111430572Y-76389901D01*
X111430572Y-76389901D02*
X111349619Y-76227996D01*
X111349619Y-76227996D02*
X111349619Y-74770853D01*
X113535333Y-76470853D02*
X113535333Y-74770853D01*
X113535333Y-75580377D02*
X114506762Y-75580377D01*
X114506762Y-76470853D02*
X114506762Y-74770853D01*
X115316285Y-76470853D02*
X115316285Y-75337520D01*
X115316285Y-74770853D02*
X115235333Y-74851805D01*
X115235333Y-74851805D02*
X115316285Y-74932758D01*
X115316285Y-74932758D02*
X115397238Y-74851805D01*
X115397238Y-74851805D02*
X115316285Y-74770853D01*
X115316285Y-74770853D02*
X115316285Y-74932758D01*
X116125809Y-76470853D02*
X116125809Y-75337520D01*
X116125809Y-75661329D02*
X116206762Y-75499424D01*
X116206762Y-75499424D02*
X116287714Y-75418472D01*
X116287714Y-75418472D02*
X116449619Y-75337520D01*
X116449619Y-75337520D02*
X116611524Y-75337520D01*
X117421048Y-76470853D02*
X117259143Y-76389901D01*
X117259143Y-76389901D02*
X117178190Y-76308948D01*
X117178190Y-76308948D02*
X117097238Y-76147043D01*
X117097238Y-76147043D02*
X117097238Y-75661329D01*
X117097238Y-75661329D02*
X117178190Y-75499424D01*
X117178190Y-75499424D02*
X117259143Y-75418472D01*
X117259143Y-75418472D02*
X117421048Y-75337520D01*
X117421048Y-75337520D02*
X117663905Y-75337520D01*
X117663905Y-75337520D02*
X117825809Y-75418472D01*
X117825809Y-75418472D02*
X117906762Y-75499424D01*
X117906762Y-75499424D02*
X117987714Y-75661329D01*
X117987714Y-75661329D02*
X117987714Y-76147043D01*
X117987714Y-76147043D02*
X117906762Y-76308948D01*
X117906762Y-76308948D02*
X117825809Y-76389901D01*
X117825809Y-76389901D02*
X117663905Y-76470853D01*
X117663905Y-76470853D02*
X117421048Y-76470853D01*
X118635333Y-76389901D02*
X118797238Y-76470853D01*
X118797238Y-76470853D02*
X119121047Y-76470853D01*
X119121047Y-76470853D02*
X119282952Y-76389901D01*
X119282952Y-76389901D02*
X119363904Y-76227996D01*
X119363904Y-76227996D02*
X119363904Y-76147043D01*
X119363904Y-76147043D02*
X119282952Y-75985139D01*
X119282952Y-75985139D02*
X119121047Y-75904186D01*
X119121047Y-75904186D02*
X118878190Y-75904186D01*
X118878190Y-75904186D02*
X118716285Y-75823234D01*
X118716285Y-75823234D02*
X118635333Y-75661329D01*
X118635333Y-75661329D02*
X118635333Y-75580377D01*
X118635333Y-75580377D02*
X118716285Y-75418472D01*
X118716285Y-75418472D02*
X118878190Y-75337520D01*
X118878190Y-75337520D02*
X119121047Y-75337520D01*
X119121047Y-75337520D02*
X119282952Y-75418472D01*
X120740094Y-76389901D02*
X120578190Y-76470853D01*
X120578190Y-76470853D02*
X120254380Y-76470853D01*
X120254380Y-76470853D02*
X120092475Y-76389901D01*
X120092475Y-76389901D02*
X120011523Y-76227996D01*
X120011523Y-76227996D02*
X120011523Y-75580377D01*
X120011523Y-75580377D02*
X120092475Y-75418472D01*
X120092475Y-75418472D02*
X120254380Y-75337520D01*
X120254380Y-75337520D02*
X120578190Y-75337520D01*
X120578190Y-75337520D02*
X120740094Y-75418472D01*
X120740094Y-75418472D02*
X120821047Y-75580377D01*
X120821047Y-75580377D02*
X120821047Y-75742281D01*
X120821047Y-75742281D02*
X120011523Y-75904186D01*
X122844856Y-76470853D02*
X122844856Y-74770853D01*
X122844856Y-74770853D02*
X123249618Y-74770853D01*
X123249618Y-74770853D02*
X123492475Y-74851805D01*
X123492475Y-74851805D02*
X123654380Y-75013710D01*
X123654380Y-75013710D02*
X123735333Y-75175615D01*
X123735333Y-75175615D02*
X123816285Y-75499424D01*
X123816285Y-75499424D02*
X123816285Y-75742281D01*
X123816285Y-75742281D02*
X123735333Y-76066091D01*
X123735333Y-76066091D02*
X123654380Y-76227996D01*
X123654380Y-76227996D02*
X123492475Y-76389901D01*
X123492475Y-76389901D02*
X123249618Y-76470853D01*
X123249618Y-76470853D02*
X122844856Y-76470853D01*
X125111523Y-75580377D02*
X124544856Y-75580377D01*
X124544856Y-76470853D02*
X124544856Y-74770853D01*
X124544856Y-74770853D02*
X125354380Y-74770853D01*
X126730571Y-75337520D02*
X126730571Y-76470853D01*
X126325809Y-74689901D02*
X125921047Y-75904186D01*
X125921047Y-75904186D02*
X126973428Y-75904186D01*
X127944857Y-74770853D02*
X128106762Y-74770853D01*
X128106762Y-74770853D02*
X128268666Y-74851805D01*
X128268666Y-74851805D02*
X128349619Y-74932758D01*
X128349619Y-74932758D02*
X128430571Y-75094662D01*
X128430571Y-75094662D02*
X128511524Y-75418472D01*
X128511524Y-75418472D02*
X128511524Y-75823234D01*
X128511524Y-75823234D02*
X128430571Y-76147043D01*
X128430571Y-76147043D02*
X128349619Y-76308948D01*
X128349619Y-76308948D02*
X128268666Y-76389901D01*
X128268666Y-76389901D02*
X128106762Y-76470853D01*
X128106762Y-76470853D02*
X127944857Y-76470853D01*
X127944857Y-76470853D02*
X127782952Y-76389901D01*
X127782952Y-76389901D02*
X127702000Y-76308948D01*
X127702000Y-76308948D02*
X127621047Y-76147043D01*
X127621047Y-76147043D02*
X127540095Y-75823234D01*
X127540095Y-75823234D02*
X127540095Y-75418472D01*
X127540095Y-75418472D02*
X127621047Y-75094662D01*
X127621047Y-75094662D02*
X127702000Y-74932758D01*
X127702000Y-74932758D02*
X127782952Y-74851805D01*
X127782952Y-74851805D02*
X127944857Y-74770853D01*
X131263905Y-74770853D02*
X130940095Y-74770853D01*
X130940095Y-74770853D02*
X130778191Y-74851805D01*
X130778191Y-74851805D02*
X130697238Y-74932758D01*
X130697238Y-74932758D02*
X130535333Y-75175615D01*
X130535333Y-75175615D02*
X130454381Y-75499424D01*
X130454381Y-75499424D02*
X130454381Y-76147043D01*
X130454381Y-76147043D02*
X130535333Y-76308948D01*
X130535333Y-76308948D02*
X130616286Y-76389901D01*
X130616286Y-76389901D02*
X130778191Y-76470853D01*
X130778191Y-76470853D02*
X131102000Y-76470853D01*
X131102000Y-76470853D02*
X131263905Y-76389901D01*
X131263905Y-76389901D02*
X131344857Y-76308948D01*
X131344857Y-76308948D02*
X131425810Y-76147043D01*
X131425810Y-76147043D02*
X131425810Y-75742281D01*
X131425810Y-75742281D02*
X131344857Y-75580377D01*
X131344857Y-75580377D02*
X131263905Y-75499424D01*
X131263905Y-75499424D02*
X131102000Y-75418472D01*
X131102000Y-75418472D02*
X130778191Y-75418472D01*
X130778191Y-75418472D02*
X130616286Y-75499424D01*
X130616286Y-75499424D02*
X130535333Y-75580377D01*
X130535333Y-75580377D02*
X130454381Y-75742281D01*
X132882953Y-75337520D02*
X132882953Y-76470853D01*
X132478191Y-74689901D02*
X132073429Y-75904186D01*
X132073429Y-75904186D02*
X133125810Y-75904186D01*
X136040096Y-76308948D02*
X135959144Y-76389901D01*
X135959144Y-76389901D02*
X135716286Y-76470853D01*
X135716286Y-76470853D02*
X135554382Y-76470853D01*
X135554382Y-76470853D02*
X135311525Y-76389901D01*
X135311525Y-76389901D02*
X135149620Y-76227996D01*
X135149620Y-76227996D02*
X135068667Y-76066091D01*
X135068667Y-76066091D02*
X134987715Y-75742281D01*
X134987715Y-75742281D02*
X134987715Y-75499424D01*
X134987715Y-75499424D02*
X135068667Y-75175615D01*
X135068667Y-75175615D02*
X135149620Y-75013710D01*
X135149620Y-75013710D02*
X135311525Y-74851805D01*
X135311525Y-74851805D02*
X135554382Y-74770853D01*
X135554382Y-74770853D02*
X135716286Y-74770853D01*
X135716286Y-74770853D02*
X135959144Y-74851805D01*
X135959144Y-74851805D02*
X136040096Y-74932758D01*
X136768667Y-76470853D02*
X136768667Y-74770853D01*
X137497239Y-76470853D02*
X137497239Y-75580377D01*
X137497239Y-75580377D02*
X137416286Y-75418472D01*
X137416286Y-75418472D02*
X137254382Y-75337520D01*
X137254382Y-75337520D02*
X137011525Y-75337520D01*
X137011525Y-75337520D02*
X136849620Y-75418472D01*
X136849620Y-75418472D02*
X136768667Y-75499424D01*
X138306762Y-76308948D02*
X138387715Y-76389901D01*
X138387715Y-76389901D02*
X138306762Y-76470853D01*
X138306762Y-76470853D02*
X138225810Y-76389901D01*
X138225810Y-76389901D02*
X138306762Y-76308948D01*
X138306762Y-76308948D02*
X138306762Y-76470853D01*
X107544858Y-79207758D02*
X106978191Y-78398234D01*
X106573429Y-79207758D02*
X106573429Y-77507758D01*
X106573429Y-77507758D02*
X107221048Y-77507758D01*
X107221048Y-77507758D02*
X107382953Y-77588710D01*
X107382953Y-77588710D02*
X107463906Y-77669663D01*
X107463906Y-77669663D02*
X107544858Y-77831567D01*
X107544858Y-77831567D02*
X107544858Y-78074425D01*
X107544858Y-78074425D02*
X107463906Y-78236329D01*
X107463906Y-78236329D02*
X107382953Y-78317282D01*
X107382953Y-78317282D02*
X107221048Y-78398234D01*
X107221048Y-78398234D02*
X106573429Y-78398234D01*
X108921048Y-79126806D02*
X108759144Y-79207758D01*
X108759144Y-79207758D02*
X108435334Y-79207758D01*
X108435334Y-79207758D02*
X108273429Y-79126806D01*
X108273429Y-79126806D02*
X108192477Y-78964901D01*
X108192477Y-78964901D02*
X108192477Y-78317282D01*
X108192477Y-78317282D02*
X108273429Y-78155377D01*
X108273429Y-78155377D02*
X108435334Y-78074425D01*
X108435334Y-78074425D02*
X108759144Y-78074425D01*
X108759144Y-78074425D02*
X108921048Y-78155377D01*
X108921048Y-78155377D02*
X109002001Y-78317282D01*
X109002001Y-78317282D02*
X109002001Y-78479186D01*
X109002001Y-78479186D02*
X108192477Y-78641091D01*
X109568668Y-78074425D02*
X109973430Y-79207758D01*
X109973430Y-79207758D02*
X110378191Y-78074425D01*
X111025810Y-79045853D02*
X111106763Y-79126806D01*
X111106763Y-79126806D02*
X111025810Y-79207758D01*
X111025810Y-79207758D02*
X110944858Y-79126806D01*
X110944858Y-79126806D02*
X111025810Y-79045853D01*
X111025810Y-79045853D02*
X111025810Y-79207758D01*
X113697239Y-78317282D02*
X113940096Y-78398234D01*
X113940096Y-78398234D02*
X114021049Y-78479186D01*
X114021049Y-78479186D02*
X114102001Y-78641091D01*
X114102001Y-78641091D02*
X114102001Y-78883948D01*
X114102001Y-78883948D02*
X114021049Y-79045853D01*
X114021049Y-79045853D02*
X113940096Y-79126806D01*
X113940096Y-79126806D02*
X113778191Y-79207758D01*
X113778191Y-79207758D02*
X113130572Y-79207758D01*
X113130572Y-79207758D02*
X113130572Y-77507758D01*
X113130572Y-77507758D02*
X113697239Y-77507758D01*
X113697239Y-77507758D02*
X113859144Y-77588710D01*
X113859144Y-77588710D02*
X113940096Y-77669663D01*
X113940096Y-77669663D02*
X114021049Y-77831567D01*
X114021049Y-77831567D02*
X114021049Y-77993472D01*
X114021049Y-77993472D02*
X113940096Y-78155377D01*
X113940096Y-78155377D02*
X113859144Y-78236329D01*
X113859144Y-78236329D02*
X113697239Y-78317282D01*
X113697239Y-78317282D02*
X113130572Y-78317282D01*
D10*
X183801759Y-101164285D02*
X183849378Y-101021428D01*
X183849378Y-101021428D02*
X183896997Y-100973809D01*
X183896997Y-100973809D02*
X183992235Y-100926190D01*
X183992235Y-100926190D02*
X184135092Y-100926190D01*
X184135092Y-100926190D02*
X184230330Y-100973809D01*
X184230330Y-100973809D02*
X184277950Y-101021428D01*
X184277950Y-101021428D02*
X184325569Y-101116666D01*
X184325569Y-101116666D02*
X184325569Y-101497618D01*
X184325569Y-101497618D02*
X183325569Y-101497618D01*
X183325569Y-101497618D02*
X183325569Y-101164285D01*
X183325569Y-101164285D02*
X183373188Y-101069047D01*
X183373188Y-101069047D02*
X183420807Y-101021428D01*
X183420807Y-101021428D02*
X183516045Y-100973809D01*
X183516045Y-100973809D02*
X183611283Y-100973809D01*
X183611283Y-100973809D02*
X183706521Y-101021428D01*
X183706521Y-101021428D02*
X183754140Y-101069047D01*
X183754140Y-101069047D02*
X183801759Y-101164285D01*
X183801759Y-101164285D02*
X183801759Y-101497618D01*
X184325569Y-100069047D02*
X183801759Y-100069047D01*
X183801759Y-100069047D02*
X183706521Y-100116666D01*
X183706521Y-100116666D02*
X183658902Y-100211904D01*
X183658902Y-100211904D02*
X183658902Y-100402380D01*
X183658902Y-100402380D02*
X183706521Y-100497618D01*
X184277950Y-100069047D02*
X184325569Y-100164285D01*
X184325569Y-100164285D02*
X184325569Y-100402380D01*
X184325569Y-100402380D02*
X184277950Y-100497618D01*
X184277950Y-100497618D02*
X184182711Y-100545237D01*
X184182711Y-100545237D02*
X184087473Y-100545237D01*
X184087473Y-100545237D02*
X183992235Y-100497618D01*
X183992235Y-100497618D02*
X183944616Y-100402380D01*
X183944616Y-100402380D02*
X183944616Y-100164285D01*
X183944616Y-100164285D02*
X183896997Y-100069047D01*
X184277950Y-99164285D02*
X184325569Y-99259523D01*
X184325569Y-99259523D02*
X184325569Y-99449999D01*
X184325569Y-99449999D02*
X184277950Y-99545237D01*
X184277950Y-99545237D02*
X184230330Y-99592856D01*
X184230330Y-99592856D02*
X184135092Y-99640475D01*
X184135092Y-99640475D02*
X183849378Y-99640475D01*
X183849378Y-99640475D02*
X183754140Y-99592856D01*
X183754140Y-99592856D02*
X183706521Y-99545237D01*
X183706521Y-99545237D02*
X183658902Y-99449999D01*
X183658902Y-99449999D02*
X183658902Y-99259523D01*
X183658902Y-99259523D02*
X183706521Y-99164285D01*
X184325569Y-98735713D02*
X183325569Y-98735713D01*
X183944616Y-98640475D02*
X184325569Y-98354761D01*
X183658902Y-98354761D02*
X184039854Y-98735713D01*
X163711759Y-101037143D02*
X163711759Y-101370476D01*
X164235569Y-101370476D02*
X163235569Y-101370476D01*
X163235569Y-101370476D02*
X163235569Y-100894286D01*
X164235569Y-100513333D02*
X163568902Y-100513333D01*
X163759378Y-100513333D02*
X163664140Y-100465714D01*
X163664140Y-100465714D02*
X163616521Y-100418095D01*
X163616521Y-100418095D02*
X163568902Y-100322857D01*
X163568902Y-100322857D02*
X163568902Y-100227619D01*
X164235569Y-99751428D02*
X164187950Y-99846666D01*
X164187950Y-99846666D02*
X164140330Y-99894285D01*
X164140330Y-99894285D02*
X164045092Y-99941904D01*
X164045092Y-99941904D02*
X163759378Y-99941904D01*
X163759378Y-99941904D02*
X163664140Y-99894285D01*
X163664140Y-99894285D02*
X163616521Y-99846666D01*
X163616521Y-99846666D02*
X163568902Y-99751428D01*
X163568902Y-99751428D02*
X163568902Y-99608571D01*
X163568902Y-99608571D02*
X163616521Y-99513333D01*
X163616521Y-99513333D02*
X163664140Y-99465714D01*
X163664140Y-99465714D02*
X163759378Y-99418095D01*
X163759378Y-99418095D02*
X164045092Y-99418095D01*
X164045092Y-99418095D02*
X164140330Y-99465714D01*
X164140330Y-99465714D02*
X164187950Y-99513333D01*
X164187950Y-99513333D02*
X164235569Y-99608571D01*
X164235569Y-99608571D02*
X164235569Y-99751428D01*
X163568902Y-98989523D02*
X164235569Y-98989523D01*
X163664140Y-98989523D02*
X163616521Y-98941904D01*
X163616521Y-98941904D02*
X163568902Y-98846666D01*
X163568902Y-98846666D02*
X163568902Y-98703809D01*
X163568902Y-98703809D02*
X163616521Y-98608571D01*
X163616521Y-98608571D02*
X163711759Y-98560952D01*
X163711759Y-98560952D02*
X164235569Y-98560952D01*
X163568902Y-98227618D02*
X163568902Y-97846666D01*
X163235569Y-98084761D02*
X164092711Y-98084761D01*
X164092711Y-98084761D02*
X164187950Y-98037142D01*
X164187950Y-98037142D02*
X164235569Y-97941904D01*
X164235569Y-97941904D02*
X164235569Y-97846666D01*
X117963333Y-123554819D02*
X117630000Y-123078628D01*
X117391905Y-123554819D02*
X117391905Y-122554819D01*
X117391905Y-122554819D02*
X117772857Y-122554819D01*
X117772857Y-122554819D02*
X117868095Y-122602438D01*
X117868095Y-122602438D02*
X117915714Y-122650057D01*
X117915714Y-122650057D02*
X117963333Y-122745295D01*
X117963333Y-122745295D02*
X117963333Y-122888152D01*
X117963333Y-122888152D02*
X117915714Y-122983390D01*
X117915714Y-122983390D02*
X117868095Y-123031009D01*
X117868095Y-123031009D02*
X117772857Y-123078628D01*
X117772857Y-123078628D02*
X117391905Y-123078628D01*
X118296667Y-122554819D02*
X118915714Y-122554819D01*
X118915714Y-122554819D02*
X118582381Y-122935771D01*
X118582381Y-122935771D02*
X118725238Y-122935771D01*
X118725238Y-122935771D02*
X118820476Y-122983390D01*
X118820476Y-122983390D02*
X118868095Y-123031009D01*
X118868095Y-123031009D02*
X118915714Y-123126247D01*
X118915714Y-123126247D02*
X118915714Y-123364342D01*
X118915714Y-123364342D02*
X118868095Y-123459580D01*
X118868095Y-123459580D02*
X118820476Y-123507200D01*
X118820476Y-123507200D02*
X118725238Y-123554819D01*
X118725238Y-123554819D02*
X118439524Y-123554819D01*
X118439524Y-123554819D02*
X118344286Y-123507200D01*
X118344286Y-123507200D02*
X118296667Y-123459580D01*
X138064819Y-113696666D02*
X137588628Y-114029999D01*
X138064819Y-114268094D02*
X137064819Y-114268094D01*
X137064819Y-114268094D02*
X137064819Y-113887142D01*
X137064819Y-113887142D02*
X137112438Y-113791904D01*
X137112438Y-113791904D02*
X137160057Y-113744285D01*
X137160057Y-113744285D02*
X137255295Y-113696666D01*
X137255295Y-113696666D02*
X137398152Y-113696666D01*
X137398152Y-113696666D02*
X137493390Y-113744285D01*
X137493390Y-113744285D02*
X137541009Y-113791904D01*
X137541009Y-113791904D02*
X137588628Y-113887142D01*
X137588628Y-113887142D02*
X137588628Y-114268094D01*
X137398152Y-112839523D02*
X138064819Y-112839523D01*
X137017200Y-113077618D02*
X137731485Y-113315713D01*
X137731485Y-113315713D02*
X137731485Y-112696666D01*
X135106666Y-91814819D02*
X135106666Y-92529104D01*
X135106666Y-92529104D02*
X135059047Y-92671961D01*
X135059047Y-92671961D02*
X134963809Y-92767200D01*
X134963809Y-92767200D02*
X134820952Y-92814819D01*
X134820952Y-92814819D02*
X134725714Y-92814819D01*
X136106666Y-92814819D02*
X135535238Y-92814819D01*
X135820952Y-92814819D02*
X135820952Y-91814819D01*
X135820952Y-91814819D02*
X135725714Y-91957676D01*
X135725714Y-91957676D02*
X135630476Y-92052914D01*
X135630476Y-92052914D02*
X135535238Y-92100533D01*
X117963333Y-124954819D02*
X117630000Y-124478628D01*
X117391905Y-124954819D02*
X117391905Y-123954819D01*
X117391905Y-123954819D02*
X117772857Y-123954819D01*
X117772857Y-123954819D02*
X117868095Y-124002438D01*
X117868095Y-124002438D02*
X117915714Y-124050057D01*
X117915714Y-124050057D02*
X117963333Y-124145295D01*
X117963333Y-124145295D02*
X117963333Y-124288152D01*
X117963333Y-124288152D02*
X117915714Y-124383390D01*
X117915714Y-124383390D02*
X117868095Y-124431009D01*
X117868095Y-124431009D02*
X117772857Y-124478628D01*
X117772857Y-124478628D02*
X117391905Y-124478628D01*
X118915714Y-124954819D02*
X118344286Y-124954819D01*
X118630000Y-124954819D02*
X118630000Y-123954819D01*
X118630000Y-123954819D02*
X118534762Y-124097676D01*
X118534762Y-124097676D02*
X118439524Y-124192914D01*
X118439524Y-124192914D02*
X118344286Y-124240533D01*
X124644819Y-130071904D02*
X125454342Y-130071904D01*
X125454342Y-130071904D02*
X125549580Y-130024285D01*
X125549580Y-130024285D02*
X125597200Y-129976666D01*
X125597200Y-129976666D02*
X125644819Y-129881428D01*
X125644819Y-129881428D02*
X125644819Y-129690952D01*
X125644819Y-129690952D02*
X125597200Y-129595714D01*
X125597200Y-129595714D02*
X125549580Y-129548095D01*
X125549580Y-129548095D02*
X125454342Y-129500476D01*
X125454342Y-129500476D02*
X124644819Y-129500476D01*
X125644819Y-128500476D02*
X125644819Y-129071904D01*
X125644819Y-128786190D02*
X124644819Y-128786190D01*
X124644819Y-128786190D02*
X124787676Y-128881428D01*
X124787676Y-128881428D02*
X124882914Y-128976666D01*
X124882914Y-128976666D02*
X124930533Y-129071904D01*
X117963333Y-122154819D02*
X117630000Y-121678628D01*
X117391905Y-122154819D02*
X117391905Y-121154819D01*
X117391905Y-121154819D02*
X117772857Y-121154819D01*
X117772857Y-121154819D02*
X117868095Y-121202438D01*
X117868095Y-121202438D02*
X117915714Y-121250057D01*
X117915714Y-121250057D02*
X117963333Y-121345295D01*
X117963333Y-121345295D02*
X117963333Y-121488152D01*
X117963333Y-121488152D02*
X117915714Y-121583390D01*
X117915714Y-121583390D02*
X117868095Y-121631009D01*
X117868095Y-121631009D02*
X117772857Y-121678628D01*
X117772857Y-121678628D02*
X117391905Y-121678628D01*
X118344286Y-121250057D02*
X118391905Y-121202438D01*
X118391905Y-121202438D02*
X118487143Y-121154819D01*
X118487143Y-121154819D02*
X118725238Y-121154819D01*
X118725238Y-121154819D02*
X118820476Y-121202438D01*
X118820476Y-121202438D02*
X118868095Y-121250057D01*
X118868095Y-121250057D02*
X118915714Y-121345295D01*
X118915714Y-121345295D02*
X118915714Y-121440533D01*
X118915714Y-121440533D02*
X118868095Y-121583390D01*
X118868095Y-121583390D02*
X118296667Y-122154819D01*
X118296667Y-122154819D02*
X118915714Y-122154819D01*
X116929580Y-126556666D02*
X116977200Y-126604285D01*
X116977200Y-126604285D02*
X117024819Y-126747142D01*
X117024819Y-126747142D02*
X117024819Y-126842380D01*
X117024819Y-126842380D02*
X116977200Y-126985237D01*
X116977200Y-126985237D02*
X116881961Y-127080475D01*
X116881961Y-127080475D02*
X116786723Y-127128094D01*
X116786723Y-127128094D02*
X116596247Y-127175713D01*
X116596247Y-127175713D02*
X116453390Y-127175713D01*
X116453390Y-127175713D02*
X116262914Y-127128094D01*
X116262914Y-127128094D02*
X116167676Y-127080475D01*
X116167676Y-127080475D02*
X116072438Y-126985237D01*
X116072438Y-126985237D02*
X116024819Y-126842380D01*
X116024819Y-126842380D02*
X116024819Y-126747142D01*
X116024819Y-126747142D02*
X116072438Y-126604285D01*
X116072438Y-126604285D02*
X116120057Y-126556666D01*
X117024819Y-125604285D02*
X117024819Y-126175713D01*
X117024819Y-125889999D02*
X116024819Y-125889999D01*
X116024819Y-125889999D02*
X116167676Y-125985237D01*
X116167676Y-125985237D02*
X116262914Y-126080475D01*
X116262914Y-126080475D02*
X116310533Y-126175713D01*
X175856666Y-91894819D02*
X175856666Y-92609104D01*
X175856666Y-92609104D02*
X175809047Y-92751961D01*
X175809047Y-92751961D02*
X175713809Y-92847200D01*
X175713809Y-92847200D02*
X175570952Y-92894819D01*
X175570952Y-92894819D02*
X175475714Y-92894819D01*
X176809047Y-91894819D02*
X176332857Y-91894819D01*
X176332857Y-91894819D02*
X176285238Y-92371009D01*
X176285238Y-92371009D02*
X176332857Y-92323390D01*
X176332857Y-92323390D02*
X176428095Y-92275771D01*
X176428095Y-92275771D02*
X176666190Y-92275771D01*
X176666190Y-92275771D02*
X176761428Y-92323390D01*
X176761428Y-92323390D02*
X176809047Y-92371009D01*
X176809047Y-92371009D02*
X176856666Y-92466247D01*
X176856666Y-92466247D02*
X176856666Y-92704342D01*
X176856666Y-92704342D02*
X176809047Y-92799580D01*
X176809047Y-92799580D02*
X176761428Y-92847200D01*
X176761428Y-92847200D02*
X176666190Y-92894819D01*
X176666190Y-92894819D02*
X176428095Y-92894819D01*
X176428095Y-92894819D02*
X176332857Y-92847200D01*
X176332857Y-92847200D02*
X176285238Y-92799580D01*
X171824819Y-113691666D02*
X171348628Y-114024999D01*
X171824819Y-114263094D02*
X170824819Y-114263094D01*
X170824819Y-114263094D02*
X170824819Y-113882142D01*
X170824819Y-113882142D02*
X170872438Y-113786904D01*
X170872438Y-113786904D02*
X170920057Y-113739285D01*
X170920057Y-113739285D02*
X171015295Y-113691666D01*
X171015295Y-113691666D02*
X171158152Y-113691666D01*
X171158152Y-113691666D02*
X171253390Y-113739285D01*
X171253390Y-113739285D02*
X171301009Y-113786904D01*
X171301009Y-113786904D02*
X171348628Y-113882142D01*
X171348628Y-113882142D02*
X171348628Y-114263094D01*
X170824819Y-112786904D02*
X170824819Y-113263094D01*
X170824819Y-113263094D02*
X171301009Y-113310713D01*
X171301009Y-113310713D02*
X171253390Y-113263094D01*
X171253390Y-113263094D02*
X171205771Y-113167856D01*
X171205771Y-113167856D02*
X171205771Y-112929761D01*
X171205771Y-112929761D02*
X171253390Y-112834523D01*
X171253390Y-112834523D02*
X171301009Y-112786904D01*
X171301009Y-112786904D02*
X171396247Y-112739285D01*
X171396247Y-112739285D02*
X171634342Y-112739285D01*
X171634342Y-112739285D02*
X171729580Y-112786904D01*
X171729580Y-112786904D02*
X171777200Y-112834523D01*
X171777200Y-112834523D02*
X171824819Y-112929761D01*
X171824819Y-112929761D02*
X171824819Y-113167856D01*
X171824819Y-113167856D02*
X171777200Y-113263094D01*
X171777200Y-113263094D02*
X171729580Y-113310713D01*
D12*
G04 #@! TO.C,R3*
X120116359Y-122670000D02*
X120423641Y-122670000D01*
X120116359Y-123430000D02*
X120423641Y-123430000D01*
G04 #@! TO.C,R4*
X138702500Y-113287742D02*
X138702500Y-113762258D01*
X139747500Y-113287742D02*
X139747500Y-113762258D01*
D13*
G04 #@! TO.C,J1*
X136876500Y-91561500D02*
X140176500Y-91561500D01*
X136876500Y-92761500D02*
X136876500Y-91561500D01*
X136876500Y-108361500D02*
X136876500Y-107186500D01*
X140176500Y-91561500D02*
X140176500Y-92761500D01*
X140176500Y-107211500D02*
X140176500Y-108361500D01*
X140176500Y-108411500D02*
X136876500Y-108411500D01*
D12*
G04 #@! TO.C,R1*
X120116359Y-124170000D02*
X120423641Y-124170000D01*
X120116359Y-124930000D02*
X120423641Y-124930000D01*
G04 #@! TO.C,H1*
D13*
X106571300Y-81400000D02*
X126971300Y-81400000D01*
X126971300Y-89800000D01*
X106571300Y-89800000D01*
X106571300Y-81400000D01*
D12*
G04 #@! TO.C,U1*
X119010000Y-129300000D02*
X119010000Y-127350000D01*
X119010000Y-129300000D02*
X119010000Y-131250000D01*
X124130000Y-129300000D02*
X124130000Y-127350000D01*
X124130000Y-129300000D02*
X124130000Y-131250000D01*
X119105000Y-132000000D02*
X118775000Y-132240000D01*
X118775000Y-131760000D01*
X119105000Y-132000000D01*
G36*
X119105000Y-132000000D02*
G01*
X118775000Y-132240000D01*
X118775000Y-131760000D01*
X119105000Y-132000000D01*
G37*
G04 #@! TO.C,R2*
X120106359Y-121420000D02*
X120413641Y-121420000D01*
X120106359Y-122180000D02*
X120413641Y-122180000D01*
G04 #@! TO.C,C1*
X117510000Y-126507836D02*
X117510000Y-126292164D01*
X118230000Y-126507836D02*
X118230000Y-126292164D01*
D13*
G04 #@! TO.C,J5*
X171285750Y-91500000D02*
X174585750Y-91500000D01*
X171285750Y-92700000D02*
X171285750Y-91550000D01*
X171285750Y-108350000D02*
X171285750Y-107150000D01*
X174585750Y-91550000D02*
X174585750Y-92725000D01*
X174585750Y-107150000D02*
X174585750Y-108350000D01*
X174585750Y-108350000D02*
X171285750Y-108350000D01*
D12*
G04 #@! TO.C,R5*
X172428250Y-113287742D02*
X172428250Y-113762258D01*
X173473250Y-113287742D02*
X173473250Y-113762258D01*
G04 #@! TD*
M02*
