G04 #@! TF.GenerationSoftware,KiCad,Pcbnew,9.0.0*
G04 #@! TF.CreationDate,2025-04-07T23:04:34+01:00*
G04 #@! TF.ProjectId,ephys-test-module-128,65706879-732d-4746-9573-742d6d6f6475,A*
G04 #@! TF.SameCoordinates,Original*
G04 #@! TF.FileFunction,Soldermask,Top*
G04 #@! TF.FilePolarity,Negative*
%FSLAX46Y46*%
G04 Gerber Fmt 4.6, Leading zero omitted, Abs format (unit mm)*
G04 Created by KiCad (PCBNEW 9.0.0) date 2025-04-07 23:04:34*
%MOMM*%
%LPD*%
G01*
G04 APERTURE LIST*
G04 Aperture macros list*
%AMRoundRect*
0 Rectangle with rounded corners*
0 $1 Rounding radius*
0 $2 $3 $4 $5 $6 $7 $8 $9 X,Y pos of 4 corners*
0 Add a 4 corners polygon primitive as box body*
4,1,4,$2,$3,$4,$5,$6,$7,$8,$9,$2,$3,0*
0 Add four circle primitives for the rounded corners*
1,1,$1+$1,$2,$3*
1,1,$1+$1,$4,$5*
1,1,$1+$1,$6,$7*
1,1,$1+$1,$8,$9*
0 Add four rect primitives between the rounded corners*
20,1,$1+$1,$2,$3,$4,$5,0*
20,1,$1+$1,$4,$5,$6,$7,0*
20,1,$1+$1,$6,$7,$8,$9,0*
20,1,$1+$1,$8,$9,$2,$3,0*%
G04 Aperture macros list end*
%ADD10C,0.000000*%
%ADD11RoundRect,0.135000X-0.135000X-0.185000X0.135000X-0.185000X0.135000X0.185000X-0.135000X0.185000X0*%
%ADD12RoundRect,0.200000X-0.275000X0.200000X-0.275000X-0.200000X0.275000X-0.200000X0.275000X0.200000X0*%
%ADD13RoundRect,0.010000X0.340000X-0.090000X0.340000X0.090000X-0.340000X0.090000X-0.340000X-0.090000X0*%
%ADD14RoundRect,0.150000X0.150000X-0.825000X0.150000X0.825000X-0.150000X0.825000X-0.150000X-0.825000X0*%
%ADD15RoundRect,0.140000X0.170000X-0.140000X0.170000X0.140000X-0.170000X0.140000X-0.170000X-0.140000X0*%
%ADD16RoundRect,0.010000X-0.340000X0.090000X-0.340000X-0.090000X0.340000X-0.090000X0.340000X0.090000X0*%
%ADD17C,1.020000*%
G04 APERTURE END LIST*
D10*
G04 #@! TO.C,G\u002A\u002A\u002A*
G36*
X185959905Y-80141203D02*
G01*
X186064976Y-80156873D01*
X186123922Y-80172831D01*
X186250199Y-80224904D01*
X186361844Y-80293761D01*
X186463049Y-80381436D01*
X186550618Y-80482520D01*
X186619043Y-80592976D01*
X186671929Y-80718639D01*
X186672586Y-80720563D01*
X186705601Y-80817510D01*
X186705601Y-81617319D01*
X186705601Y-82417128D01*
X186672586Y-82514075D01*
X186619724Y-82639948D01*
X186550678Y-82751223D01*
X186463158Y-82852577D01*
X186355234Y-82945634D01*
X186237986Y-83016344D01*
X186111013Y-83064883D01*
X185973911Y-83091425D01*
X185905792Y-83096354D01*
X185847021Y-83097131D01*
X185790958Y-83095526D01*
X185746223Y-83091880D01*
X185730987Y-83089439D01*
X185595802Y-83051705D01*
X185476406Y-82998028D01*
X185368602Y-82926177D01*
X185287459Y-82853686D01*
X185209875Y-82766819D01*
X185149378Y-82676447D01*
X185101466Y-82575031D01*
X185073771Y-82495897D01*
X185045391Y-82405010D01*
X185045391Y-82380773D01*
X185045391Y-81617319D01*
X185045391Y-80853865D01*
X185433177Y-80853865D01*
X185433177Y-81617319D01*
X185433177Y-82380773D01*
X185466069Y-82447424D01*
X185522661Y-82540159D01*
X185591738Y-82612855D01*
X185675265Y-82667309D01*
X185733710Y-82692177D01*
X185810174Y-82709183D01*
X185896261Y-82711618D01*
X185982615Y-82699984D01*
X186059880Y-82674782D01*
X186060128Y-82674668D01*
X186136299Y-82628202D01*
X186206108Y-82563800D01*
X186263234Y-82487761D01*
X186282192Y-82453329D01*
X186317815Y-82380773D01*
X186317815Y-81617319D01*
X186317815Y-80853865D01*
X186282192Y-80781310D01*
X186231930Y-80701646D01*
X186165905Y-80630836D01*
X186090555Y-80575317D01*
X186060128Y-80559246D01*
X186022556Y-80543215D01*
X185988136Y-80533427D01*
X185948596Y-80528423D01*
X185895667Y-80526744D01*
X185875496Y-80526670D01*
X185816809Y-80527623D01*
X185774045Y-80531453D01*
X185738935Y-80539620D01*
X185703208Y-80553583D01*
X185690864Y-80559246D01*
X185617471Y-80604411D01*
X185548772Y-80666305D01*
X185492125Y-80737568D01*
X185465754Y-80784357D01*
X185433177Y-80853865D01*
X185045391Y-80853865D01*
X185045391Y-80829628D01*
X185073771Y-80738741D01*
X185115697Y-80625506D01*
X185167146Y-80528443D01*
X185232618Y-80440012D01*
X185287459Y-80380952D01*
X185374327Y-80303368D01*
X185464699Y-80242871D01*
X185566114Y-80194959D01*
X185645248Y-80167263D01*
X185741161Y-80146295D01*
X185849006Y-80137642D01*
X185959905Y-80141203D01*
G37*
G36*
X190329562Y-80140201D02*
G01*
X190431571Y-80154642D01*
X190480458Y-80167297D01*
X190597806Y-80211166D01*
X190698418Y-80265580D01*
X190788860Y-80334421D01*
X190831889Y-80375032D01*
X190919392Y-80474769D01*
X190987079Y-80580197D01*
X191039336Y-80698355D01*
X191047118Y-80720563D01*
X191079952Y-80817510D01*
X191080133Y-81255888D01*
X191080134Y-81370673D01*
X191079945Y-81463731D01*
X191079433Y-81537573D01*
X191078466Y-81594707D01*
X191076913Y-81637643D01*
X191074642Y-81668892D01*
X191071520Y-81690964D01*
X191067416Y-81706367D01*
X191062198Y-81717613D01*
X191055735Y-81727210D01*
X191055329Y-81727754D01*
X191026479Y-81760115D01*
X190996890Y-81786227D01*
X190988509Y-81791978D01*
X190978688Y-81796789D01*
X190965289Y-81800759D01*
X190946172Y-81803985D01*
X190919200Y-81806567D01*
X190882232Y-81808603D01*
X190833132Y-81810191D01*
X190769759Y-81811432D01*
X190689976Y-81812422D01*
X190591643Y-81813260D01*
X190472622Y-81814046D01*
X190381832Y-81814582D01*
X189800227Y-81817953D01*
X189804059Y-82099363D01*
X189807891Y-82380773D01*
X189846079Y-82461375D01*
X189899939Y-82550504D01*
X189969285Y-82621570D01*
X190056341Y-82676795D01*
X190066602Y-82681766D01*
X190111355Y-82701393D01*
X190148988Y-82712869D01*
X190189568Y-82718275D01*
X190243162Y-82719690D01*
X190250210Y-82719691D01*
X190340185Y-82712602D01*
X190418426Y-82689770D01*
X190492046Y-82648481D01*
X190544347Y-82607396D01*
X190611482Y-82560310D01*
X190676361Y-82537122D01*
X190738626Y-82537854D01*
X190797920Y-82562526D01*
X190833846Y-82590612D01*
X190876976Y-82643916D01*
X190896714Y-82700422D01*
X190893545Y-82759158D01*
X190867952Y-82819148D01*
X190820417Y-82879420D01*
X190751424Y-82939000D01*
X190661456Y-82996914D01*
X190621558Y-83018442D01*
X190515454Y-83061374D01*
X190396584Y-83089338D01*
X190271768Y-83101641D01*
X190147826Y-83097592D01*
X190036596Y-83077834D01*
X189902375Y-83030663D01*
X189781263Y-82963572D01*
X189674573Y-82877812D01*
X189583619Y-82774634D01*
X189509712Y-82655291D01*
X189454904Y-82523294D01*
X189420105Y-82417128D01*
X189420105Y-81617319D01*
X189420105Y-81429485D01*
X189799910Y-81429485D01*
X190250210Y-81429485D01*
X190700510Y-81429485D01*
X190696478Y-81141675D01*
X190692447Y-80853865D01*
X190656974Y-80781419D01*
X190606945Y-80702002D01*
X190541086Y-80631260D01*
X190465886Y-80575684D01*
X190434842Y-80559246D01*
X190397270Y-80543215D01*
X190362849Y-80533427D01*
X190323310Y-80528423D01*
X190270381Y-80526744D01*
X190250210Y-80526670D01*
X190191522Y-80527623D01*
X190148759Y-80531453D01*
X190113649Y-80539620D01*
X190077922Y-80553583D01*
X190065578Y-80559246D01*
X189988467Y-80606992D01*
X189918118Y-80672483D01*
X189861020Y-80749230D01*
X189843446Y-80781419D01*
X189807973Y-80853865D01*
X189803941Y-81141675D01*
X189799910Y-81429485D01*
X189420105Y-81429485D01*
X189420105Y-80817510D01*
X189453120Y-80720563D01*
X189503471Y-80599171D01*
X189568373Y-80491920D01*
X189652277Y-80391671D01*
X189668531Y-80375032D01*
X189756368Y-80297614D01*
X189851125Y-80236543D01*
X189959367Y-80187939D01*
X190019962Y-80167297D01*
X190114414Y-80146529D01*
X190220729Y-80137497D01*
X190329562Y-80140201D01*
G37*
G36*
X195637387Y-80140201D02*
G01*
X195739396Y-80154642D01*
X195788282Y-80167297D01*
X195905631Y-80211166D01*
X196006242Y-80265580D01*
X196096684Y-80334421D01*
X196139714Y-80375032D01*
X196227216Y-80474769D01*
X196294904Y-80580197D01*
X196347160Y-80698355D01*
X196354942Y-80720563D01*
X196387776Y-80817510D01*
X196387958Y-81255888D01*
X196387959Y-81370673D01*
X196387769Y-81463731D01*
X196387257Y-81537573D01*
X196386290Y-81594707D01*
X196384738Y-81637643D01*
X196382466Y-81668892D01*
X196379345Y-81690964D01*
X196375241Y-81706367D01*
X196370023Y-81717613D01*
X196363559Y-81727210D01*
X196363154Y-81727754D01*
X196334304Y-81760115D01*
X196304715Y-81786227D01*
X196296334Y-81791978D01*
X196286513Y-81796789D01*
X196273113Y-81800759D01*
X196253997Y-81803985D01*
X196227024Y-81806567D01*
X196190057Y-81808603D01*
X196140956Y-81810191D01*
X196077584Y-81811432D01*
X195997800Y-81812422D01*
X195899467Y-81813260D01*
X195780446Y-81814046D01*
X195689656Y-81814582D01*
X195108051Y-81817953D01*
X195111883Y-82099363D01*
X195115716Y-82380773D01*
X195153903Y-82461375D01*
X195207763Y-82550504D01*
X195277109Y-82621570D01*
X195364166Y-82676795D01*
X195374427Y-82681766D01*
X195419179Y-82701393D01*
X195456812Y-82712869D01*
X195497392Y-82718275D01*
X195550987Y-82719690D01*
X195558034Y-82719691D01*
X195648009Y-82712602D01*
X195726250Y-82689770D01*
X195799871Y-82648481D01*
X195852171Y-82607396D01*
X195919306Y-82560310D01*
X195984185Y-82537122D01*
X196046451Y-82537854D01*
X196105744Y-82562526D01*
X196141671Y-82590612D01*
X196184800Y-82643916D01*
X196204539Y-82700422D01*
X196201370Y-82759158D01*
X196175776Y-82819148D01*
X196128242Y-82879420D01*
X196059249Y-82939000D01*
X195969281Y-82996914D01*
X195929382Y-83018442D01*
X195823278Y-83061374D01*
X195704408Y-83089338D01*
X195579592Y-83101641D01*
X195455650Y-83097592D01*
X195344421Y-83077834D01*
X195210200Y-83030663D01*
X195089088Y-82963572D01*
X194982398Y-82877812D01*
X194891443Y-82774634D01*
X194817536Y-82655291D01*
X194762728Y-82523294D01*
X194727929Y-82417128D01*
X194727929Y-81617319D01*
X194727929Y-81429485D01*
X195107734Y-81429485D01*
X195558034Y-81429485D01*
X196008335Y-81429485D01*
X196004303Y-81141675D01*
X196000271Y-80853865D01*
X195964798Y-80781419D01*
X195914770Y-80702002D01*
X195848911Y-80631260D01*
X195773710Y-80575684D01*
X195742666Y-80559246D01*
X195705094Y-80543215D01*
X195670674Y-80533427D01*
X195631134Y-80528423D01*
X195578205Y-80526744D01*
X195558034Y-80526670D01*
X195499347Y-80527623D01*
X195456584Y-80531453D01*
X195421474Y-80539620D01*
X195385746Y-80553583D01*
X195373402Y-80559246D01*
X195296291Y-80606992D01*
X195225942Y-80672483D01*
X195168845Y-80749230D01*
X195151270Y-80781419D01*
X195115798Y-80853865D01*
X195111766Y-81141675D01*
X195107734Y-81429485D01*
X194727929Y-81429485D01*
X194727929Y-80817510D01*
X194760945Y-80720563D01*
X194811296Y-80599171D01*
X194876198Y-80491920D01*
X194960102Y-80391671D01*
X194976355Y-80375032D01*
X195064192Y-80297614D01*
X195158949Y-80236543D01*
X195267191Y-80187939D01*
X195327786Y-80167297D01*
X195422239Y-80146529D01*
X195528553Y-80137497D01*
X195637387Y-80140201D01*
G37*
G36*
X192689158Y-80201108D02*
G01*
X192790179Y-80242085D01*
X192875146Y-80288428D01*
X192952241Y-80345233D01*
X193018331Y-80406188D01*
X193106347Y-80507270D01*
X193174769Y-80616956D01*
X193227452Y-80741455D01*
X193228597Y-80744800D01*
X193261613Y-80841747D01*
X193261613Y-81910295D01*
X193261605Y-82095560D01*
X193261557Y-82258125D01*
X193261436Y-82399528D01*
X193261205Y-82521306D01*
X193260831Y-82624997D01*
X193260278Y-82712137D01*
X193259511Y-82784265D01*
X193258497Y-82842916D01*
X193257198Y-82889629D01*
X193255582Y-82925941D01*
X193253613Y-82953389D01*
X193251256Y-82973511D01*
X193248476Y-82987842D01*
X193245238Y-82997922D01*
X193241509Y-83005287D01*
X193237252Y-83011475D01*
X193236627Y-83012314D01*
X193194874Y-83058489D01*
X193150244Y-83084805D01*
X193095110Y-83095169D01*
X193073779Y-83095754D01*
X193013627Y-83089714D01*
X192966440Y-83068989D01*
X192924588Y-83029670D01*
X192910930Y-83012328D01*
X192906561Y-83006074D01*
X192902721Y-82998728D01*
X192899369Y-82988741D01*
X192896457Y-82974560D01*
X192893943Y-82954633D01*
X192891782Y-82927410D01*
X192889929Y-82891339D01*
X192888340Y-82844869D01*
X192886970Y-82786448D01*
X192885775Y-82714524D01*
X192884711Y-82627547D01*
X192883733Y-82523965D01*
X192882797Y-82402227D01*
X192881858Y-82260781D01*
X192880871Y-82098075D01*
X192879885Y-81928487D01*
X192873826Y-80878101D01*
X192838313Y-80805656D01*
X192783336Y-80719665D01*
X192710499Y-80645823D01*
X192625189Y-80589515D01*
X192619077Y-80586461D01*
X192546632Y-80550989D01*
X192258993Y-80546959D01*
X191971355Y-80542929D01*
X191968154Y-81760894D01*
X191967625Y-81959469D01*
X191967124Y-82135241D01*
X191966618Y-82289646D01*
X191966075Y-82424118D01*
X191965463Y-82540091D01*
X191964750Y-82639000D01*
X191963902Y-82722279D01*
X191962888Y-82791362D01*
X191961675Y-82847684D01*
X191960232Y-82892680D01*
X191958525Y-82927783D01*
X191956523Y-82954429D01*
X191954193Y-82974052D01*
X191951503Y-82988086D01*
X191948420Y-82997965D01*
X191944913Y-83005125D01*
X191940948Y-83010999D01*
X191939967Y-83012321D01*
X191911895Y-83044026D01*
X191883308Y-83069431D01*
X191842652Y-83088180D01*
X191790154Y-83097306D01*
X191736592Y-83095881D01*
X191697748Y-83085439D01*
X191653953Y-83055818D01*
X191616542Y-83013296D01*
X191592748Y-82966704D01*
X191589301Y-82953007D01*
X191588391Y-82935825D01*
X191587579Y-82896024D01*
X191586869Y-82835224D01*
X191586264Y-82755042D01*
X191585771Y-82657097D01*
X191585391Y-82543008D01*
X191585131Y-82414392D01*
X191584993Y-82272868D01*
X191584982Y-82120055D01*
X191585103Y-81957570D01*
X191585359Y-81787033D01*
X191585755Y-81610061D01*
X191585790Y-81596998D01*
X191586345Y-81390052D01*
X191586867Y-81205966D01*
X191587386Y-81043364D01*
X191587931Y-80900868D01*
X191588531Y-80777102D01*
X191589215Y-80670690D01*
X191590012Y-80580254D01*
X191590950Y-80504418D01*
X191592059Y-80441806D01*
X191593369Y-80391041D01*
X191594907Y-80350746D01*
X191596703Y-80319545D01*
X191598787Y-80296060D01*
X191601186Y-80278916D01*
X191603931Y-80266736D01*
X191607050Y-80258143D01*
X191610572Y-80251760D01*
X191614270Y-80246554D01*
X191643130Y-80214214D01*
X191672751Y-80188106D01*
X191682337Y-80181567D01*
X191693438Y-80176281D01*
X191708566Y-80172113D01*
X191730228Y-80168932D01*
X191760936Y-80166605D01*
X191803200Y-80164999D01*
X191859528Y-80163980D01*
X191932432Y-80163416D01*
X192024420Y-80163174D01*
X192138004Y-80163121D01*
X192144616Y-80163121D01*
X192582987Y-80163121D01*
X192689158Y-80201108D01*
G37*
G36*
X199374864Y-78848263D02*
G01*
X199422051Y-78868988D01*
X199463903Y-78908305D01*
X199477562Y-78925649D01*
X199483241Y-78933914D01*
X199488003Y-78943596D01*
X199491944Y-78956802D01*
X199495158Y-78975637D01*
X199497739Y-79002207D01*
X199499783Y-79038619D01*
X199501383Y-79086978D01*
X199502635Y-79149391D01*
X199503632Y-79227964D01*
X199504469Y-79324802D01*
X199505242Y-79442012D01*
X199505905Y-79557016D01*
X199509263Y-80154929D01*
X199814923Y-80159753D01*
X199909783Y-80161358D01*
X199984152Y-80163047D01*
X200041772Y-80165165D01*
X200086388Y-80168056D01*
X200121743Y-80172067D01*
X200151581Y-80177541D01*
X200179645Y-80184825D01*
X200209679Y-80194263D01*
X200217529Y-80196864D01*
X200343757Y-80249087D01*
X200455205Y-80317820D01*
X200556656Y-80405673D01*
X200644225Y-80506757D01*
X200712650Y-80617213D01*
X200765535Y-80742876D01*
X200766193Y-80744800D01*
X200799208Y-80841747D01*
X200799208Y-81910295D01*
X200799200Y-82095560D01*
X200799153Y-82258125D01*
X200799031Y-82399528D01*
X200798801Y-82521306D01*
X200798426Y-82624997D01*
X200797873Y-82712137D01*
X200797107Y-82784265D01*
X200796092Y-82842916D01*
X200794794Y-82889629D01*
X200793177Y-82925941D01*
X200791208Y-82953389D01*
X200788851Y-82973511D01*
X200786071Y-82987842D01*
X200782834Y-82997922D01*
X200779104Y-83005287D01*
X200774847Y-83011475D01*
X200774223Y-83012314D01*
X200732470Y-83058489D01*
X200687839Y-83084805D01*
X200632705Y-83095169D01*
X200611374Y-83095754D01*
X200551223Y-83089714D01*
X200504035Y-83068989D01*
X200462183Y-83029670D01*
X200448525Y-83012328D01*
X200444156Y-83006074D01*
X200440317Y-82998728D01*
X200436964Y-82988741D01*
X200434053Y-82974560D01*
X200431539Y-82954633D01*
X200429377Y-82927410D01*
X200427524Y-82891339D01*
X200425935Y-82844869D01*
X200424565Y-82786448D01*
X200423371Y-82714524D01*
X200422306Y-82627547D01*
X200421328Y-82523965D01*
X200420392Y-82402227D01*
X200419453Y-82260781D01*
X200418467Y-82098075D01*
X200417481Y-81928487D01*
X200411422Y-80878101D01*
X200375908Y-80805656D01*
X200320931Y-80719665D01*
X200248094Y-80645823D01*
X200162785Y-80589515D01*
X200156673Y-80586461D01*
X200084227Y-80550989D01*
X199796589Y-80546959D01*
X199508950Y-80542929D01*
X199505749Y-81760894D01*
X199505220Y-81959469D01*
X199504719Y-82135241D01*
X199504214Y-82289646D01*
X199503671Y-82424118D01*
X199503059Y-82540091D01*
X199502345Y-82639000D01*
X199501497Y-82722279D01*
X199500483Y-82791362D01*
X199499271Y-82847684D01*
X199497827Y-82892680D01*
X199496120Y-82927783D01*
X199494118Y-82954429D01*
X199491788Y-82974052D01*
X199489098Y-82988086D01*
X199486016Y-82997965D01*
X199482508Y-83005125D01*
X199478544Y-83010999D01*
X199477562Y-83012321D01*
X199449491Y-83044026D01*
X199420903Y-83069431D01*
X199380248Y-83088180D01*
X199327749Y-83097306D01*
X199274187Y-83095881D01*
X199235344Y-83085439D01*
X199191557Y-83055827D01*
X199154159Y-83013323D01*
X199130377Y-82966752D01*
X199126923Y-82953007D01*
X199126177Y-82936758D01*
X199125495Y-82897576D01*
X199124879Y-82836765D01*
X199124331Y-82755628D01*
X199123855Y-82655469D01*
X199123451Y-82537593D01*
X199123123Y-82403302D01*
X199122873Y-82253901D01*
X199122703Y-82090693D01*
X199122615Y-81914982D01*
X199122611Y-81728071D01*
X199122694Y-81531264D01*
X199122866Y-81325866D01*
X199123130Y-81113179D01*
X199123412Y-80936551D01*
X199123863Y-80680360D01*
X199124289Y-80447291D01*
X199124703Y-80236231D01*
X199125123Y-80046066D01*
X199125563Y-79875681D01*
X199126041Y-79723963D01*
X199126570Y-79589798D01*
X199127167Y-79472071D01*
X199127849Y-79369669D01*
X199128630Y-79281478D01*
X199129526Y-79206384D01*
X199130554Y-79143272D01*
X199131729Y-79091029D01*
X199133066Y-79048541D01*
X199134581Y-79014694D01*
X199136291Y-78988374D01*
X199138211Y-78968466D01*
X199140357Y-78953858D01*
X199142744Y-78943434D01*
X199145388Y-78936081D01*
X199148306Y-78930685D01*
X199151512Y-78926132D01*
X199151865Y-78925658D01*
X199193620Y-78879486D01*
X199238249Y-78853172D01*
X199293379Y-78842809D01*
X199314714Y-78842224D01*
X199374864Y-78848263D01*
G37*
G36*
X204149924Y-80139524D02*
G01*
X204213879Y-80140442D01*
X204261639Y-80143382D01*
X204301231Y-80149653D01*
X204340686Y-80160564D01*
X204388033Y-80177422D01*
X204392290Y-80179025D01*
X204511959Y-80234692D01*
X204620146Y-80306020D01*
X204713143Y-80390039D01*
X204787242Y-80483781D01*
X204801323Y-80506578D01*
X204828183Y-80572277D01*
X204833333Y-80636957D01*
X204817747Y-80696721D01*
X204782401Y-80747676D01*
X204731788Y-80784185D01*
X204664946Y-80806343D01*
X204600536Y-80805630D01*
X204541992Y-80783011D01*
X204492749Y-80739452D01*
X204473554Y-80711609D01*
X204417319Y-80635964D01*
X204348749Y-80580659D01*
X204266860Y-80545154D01*
X204170669Y-80528911D01*
X204137805Y-80527703D01*
X204055141Y-80532140D01*
X203987490Y-80549087D01*
X203927639Y-80581387D01*
X203868375Y-80631889D01*
X203864824Y-80635416D01*
X203807794Y-80707812D01*
X203770141Y-80789013D01*
X203752099Y-80874968D01*
X203753901Y-80961625D01*
X203775779Y-81044932D01*
X203817964Y-81120836D01*
X203835708Y-81142807D01*
X203859191Y-81164991D01*
X203900389Y-81198916D01*
X203956920Y-81242781D01*
X204026404Y-81294780D01*
X204106455Y-81353111D01*
X204194694Y-81415970D01*
X204220700Y-81434246D01*
X204303818Y-81493056D01*
X204383327Y-81550384D01*
X204456299Y-81604038D01*
X204519805Y-81651828D01*
X204570917Y-81691560D01*
X204606707Y-81721042D01*
X204619422Y-81732714D01*
X204703237Y-81830018D01*
X204767908Y-81936571D01*
X204809351Y-82034866D01*
X204824543Y-82079474D01*
X204834889Y-82116869D01*
X204841321Y-82153767D01*
X204844772Y-82196885D01*
X204846174Y-82252939D01*
X204846432Y-82302004D01*
X204843355Y-82407229D01*
X204832540Y-82495498D01*
X204812241Y-82573343D01*
X204780712Y-82647292D01*
X204736208Y-82723875D01*
X204731781Y-82730698D01*
X204647717Y-82838615D01*
X204548931Y-82929566D01*
X204438151Y-83002467D01*
X204318100Y-83056231D01*
X204191505Y-83089772D01*
X204061091Y-83102003D01*
X203929582Y-83091839D01*
X203861865Y-83077394D01*
X203739443Y-83034139D01*
X203624130Y-82971695D01*
X203520391Y-82893189D01*
X203432689Y-82801748D01*
X203395073Y-82750382D01*
X203358033Y-82678633D01*
X203342328Y-82610394D01*
X203347257Y-82548214D01*
X203372120Y-82494640D01*
X203416218Y-82452221D01*
X203478850Y-82423504D01*
X203485396Y-82421672D01*
X203552512Y-82413784D01*
X203611327Y-82428585D01*
X203663002Y-82466457D01*
X203679970Y-82485674D01*
X203732247Y-82548882D01*
X203775455Y-82595801D01*
X203813842Y-82630389D01*
X203851656Y-82656608D01*
X203879800Y-82671972D01*
X203918040Y-82689536D01*
X203952049Y-82700140D01*
X203990543Y-82705512D01*
X204042240Y-82707379D01*
X204059036Y-82707504D01*
X204115008Y-82706824D01*
X204155296Y-82703120D01*
X204188414Y-82694751D01*
X204222875Y-82680074D01*
X204236633Y-82673242D01*
X204315680Y-82621531D01*
X204383569Y-82554258D01*
X204430657Y-82483779D01*
X204443875Y-82454998D01*
X204452268Y-82425823D01*
X204456871Y-82389596D01*
X204458721Y-82339658D01*
X204458941Y-82302004D01*
X204458438Y-82243331D01*
X204456073Y-82202009D01*
X204450557Y-82171159D01*
X204440603Y-82143901D01*
X204424923Y-82113356D01*
X204422972Y-82109822D01*
X204410672Y-82088304D01*
X204398006Y-82068797D01*
X204383007Y-82049687D01*
X204363708Y-82029359D01*
X204338140Y-82006199D01*
X204304338Y-81978592D01*
X204260332Y-81944924D01*
X204204155Y-81903580D01*
X204133841Y-81852946D01*
X204047421Y-81791408D01*
X203955685Y-81726384D01*
X203858091Y-81656563D01*
X203770611Y-81592566D01*
X203695216Y-81535902D01*
X203633877Y-81488079D01*
X203588565Y-81450605D01*
X203561251Y-81424989D01*
X203559840Y-81423426D01*
X203485757Y-81323023D01*
X203426121Y-81207151D01*
X203396719Y-81126527D01*
X203376402Y-81034230D01*
X203367360Y-80931315D01*
X203369626Y-80826838D01*
X203383230Y-80729856D01*
X203395169Y-80684208D01*
X203446363Y-80561805D01*
X203517896Y-80449792D01*
X203607166Y-80350734D01*
X203711575Y-80267194D01*
X203828523Y-80201735D01*
X203919676Y-80167039D01*
X203969104Y-80153440D01*
X204016420Y-80144981D01*
X204069966Y-80140663D01*
X204138086Y-80139491D01*
X204149924Y-80139524D01*
G37*
G36*
X202970300Y-80156672D02*
G01*
X203021428Y-80189272D01*
X203059637Y-80235975D01*
X203080714Y-80293608D01*
X203083511Y-80325273D01*
X203080110Y-80339859D01*
X203070211Y-80376113D01*
X203054274Y-80432485D01*
X203032759Y-80507427D01*
X203006124Y-80599389D01*
X202974830Y-80706822D01*
X202939336Y-80828176D01*
X202900100Y-80961903D01*
X202857583Y-81106454D01*
X202812243Y-81260279D01*
X202764541Y-81421829D01*
X202714935Y-81589555D01*
X202663884Y-81761908D01*
X202611849Y-81937339D01*
X202559288Y-82114298D01*
X202506662Y-82291237D01*
X202454428Y-82466605D01*
X202403047Y-82638855D01*
X202352978Y-82806436D01*
X202304680Y-82967800D01*
X202258613Y-83121397D01*
X202215236Y-83265679D01*
X202175009Y-83399096D01*
X202138390Y-83520099D01*
X202105839Y-83627139D01*
X202077816Y-83718666D01*
X202064367Y-83762262D01*
X202027143Y-83869892D01*
X201986728Y-83959274D01*
X201939723Y-84036391D01*
X201882729Y-84107232D01*
X201847602Y-84143989D01*
X201736614Y-84238708D01*
X201616017Y-84311712D01*
X201487033Y-84362436D01*
X201350887Y-84390311D01*
X201308177Y-84394176D01*
X201256292Y-84396545D01*
X201220044Y-84394767D01*
X201191012Y-84387611D01*
X201160771Y-84373848D01*
X201157595Y-84372186D01*
X201104873Y-84332102D01*
X201072043Y-84278406D01*
X201059818Y-84212307D01*
X201059752Y-84206601D01*
X201067824Y-84140555D01*
X201092907Y-84088898D01*
X201136297Y-84050471D01*
X201199293Y-84024116D01*
X201281366Y-84008879D01*
X201390763Y-83986736D01*
X201483984Y-83946568D01*
X201561111Y-83888322D01*
X201622228Y-83811945D01*
X201638037Y-83784390D01*
X201652275Y-83752317D01*
X201671144Y-83702170D01*
X201693664Y-83637237D01*
X201718856Y-83560810D01*
X201745740Y-83476178D01*
X201773336Y-83386631D01*
X201800665Y-83295459D01*
X201826748Y-83205952D01*
X201850604Y-83121401D01*
X201871254Y-83045095D01*
X201887719Y-82980325D01*
X201899018Y-82930379D01*
X201904174Y-82898550D01*
X201904162Y-82890577D01*
X201899866Y-82874024D01*
X201889067Y-82835852D01*
X201872235Y-82777652D01*
X201849842Y-82701017D01*
X201822357Y-82607538D01*
X201790252Y-82498807D01*
X201753998Y-82376418D01*
X201714064Y-82241961D01*
X201670922Y-82097028D01*
X201625043Y-81943213D01*
X201576897Y-81782106D01*
X201538452Y-81653674D01*
X201488664Y-81487389D01*
X201440608Y-81326738D01*
X201394771Y-81173357D01*
X201351640Y-81028883D01*
X201311702Y-80894951D01*
X201275444Y-80773198D01*
X201243353Y-80665261D01*
X201215916Y-80572775D01*
X201193621Y-80497378D01*
X201176953Y-80440704D01*
X201166401Y-80404392D01*
X201162806Y-80391555D01*
X201153826Y-80319357D01*
X201167148Y-80256349D01*
X201202936Y-80201851D01*
X201210905Y-80193732D01*
X201262729Y-80158446D01*
X201321385Y-80142398D01*
X201381455Y-80144801D01*
X201437522Y-80164868D01*
X201484168Y-80201810D01*
X201508130Y-80236928D01*
X201514300Y-80253806D01*
X201526798Y-80292147D01*
X201545082Y-80350171D01*
X201568610Y-80426100D01*
X201596839Y-80518153D01*
X201629227Y-80624551D01*
X201665231Y-80743515D01*
X201704310Y-80873265D01*
X201745920Y-81012023D01*
X201789520Y-81158007D01*
X201817147Y-81250809D01*
X201861382Y-81399345D01*
X201903711Y-81541022D01*
X201943619Y-81674144D01*
X201980591Y-81797016D01*
X202014113Y-81907942D01*
X202043670Y-82005226D01*
X202068747Y-82087172D01*
X202088829Y-82152084D01*
X202103403Y-82198267D01*
X202111953Y-82224026D01*
X202114046Y-82229014D01*
X202118398Y-82217704D01*
X202129170Y-82184919D01*
X202145824Y-82132400D01*
X202167825Y-82061890D01*
X202194638Y-81975131D01*
X202225726Y-81873864D01*
X202260554Y-81759832D01*
X202298586Y-81634776D01*
X202339287Y-81500438D01*
X202382119Y-81358561D01*
X202398203Y-81305159D01*
X202442276Y-81158751D01*
X202484771Y-81017602D01*
X202525106Y-80883648D01*
X202562698Y-80758824D01*
X202596963Y-80645067D01*
X202627318Y-80544312D01*
X202653181Y-80458495D01*
X202673968Y-80389550D01*
X202689096Y-80339415D01*
X202697982Y-80310023D01*
X202699247Y-80305858D01*
X202729911Y-80234290D01*
X202772481Y-80183326D01*
X202827881Y-80151962D01*
X202846140Y-80146475D01*
X202910466Y-80141348D01*
X202970300Y-80156672D01*
G37*
G36*
X188362917Y-80201108D02*
G01*
X188463939Y-80242085D01*
X188548906Y-80288428D01*
X188626001Y-80345233D01*
X188692090Y-80406188D01*
X188780107Y-80507270D01*
X188848528Y-80616956D01*
X188901212Y-80741455D01*
X188902357Y-80744800D01*
X188935372Y-80841747D01*
X188935372Y-81617319D01*
X188935372Y-82392892D01*
X188902357Y-82489838D01*
X188850016Y-82614785D01*
X188782034Y-82724765D01*
X188694553Y-82825986D01*
X188692090Y-82828450D01*
X188614445Y-82898936D01*
X188536000Y-82954216D01*
X188448479Y-82999432D01*
X188362917Y-83033039D01*
X188329863Y-83044551D01*
X188301441Y-83053474D01*
X188273895Y-83060193D01*
X188243470Y-83065093D01*
X188206409Y-83068560D01*
X188158956Y-83070979D01*
X188097355Y-83072734D01*
X188017851Y-83074211D01*
X187951086Y-83075262D01*
X187645427Y-83079987D01*
X187642069Y-83677761D01*
X187641279Y-83813578D01*
X187640502Y-83927266D01*
X187639644Y-84020929D01*
X187638612Y-84096675D01*
X187637309Y-84156610D01*
X187635641Y-84202840D01*
X187633515Y-84237472D01*
X187630835Y-84262611D01*
X187627506Y-84280365D01*
X187623435Y-84292840D01*
X187618526Y-84302141D01*
X187613726Y-84308989D01*
X187585652Y-84340692D01*
X187557067Y-84366092D01*
X187516412Y-84384840D01*
X187463913Y-84393966D01*
X187410352Y-84392541D01*
X187371508Y-84382099D01*
X187327721Y-84352487D01*
X187290323Y-84309983D01*
X187266541Y-84263412D01*
X187263087Y-84249667D01*
X187262339Y-84233405D01*
X187261654Y-84194215D01*
X187261037Y-84133404D01*
X187260489Y-84052279D01*
X187260012Y-83952151D01*
X187259608Y-83834325D01*
X187259281Y-83700110D01*
X187259032Y-83550814D01*
X187258863Y-83387745D01*
X187258777Y-83212211D01*
X187258776Y-83025520D01*
X187258863Y-82828979D01*
X187259039Y-82623897D01*
X187259307Y-82411582D01*
X187259575Y-82245329D01*
X187260029Y-81989960D01*
X187260455Y-81757710D01*
X187260733Y-81617319D01*
X187644771Y-81617319D01*
X187644771Y-82689790D01*
X187904235Y-82689790D01*
X187995010Y-82689486D01*
X188065518Y-82688395D01*
X188119724Y-82686249D01*
X188161593Y-82682780D01*
X188195089Y-82677720D01*
X188224177Y-82670802D01*
X188235662Y-82667393D01*
X188331140Y-82626301D01*
X188411679Y-82566722D01*
X188478264Y-82487776D01*
X188521677Y-82411069D01*
X188527011Y-82399388D01*
X188531558Y-82387262D01*
X188535380Y-82372765D01*
X188538541Y-82353971D01*
X188541103Y-82328953D01*
X188543129Y-82295786D01*
X188544681Y-82252543D01*
X188545824Y-82197299D01*
X188546619Y-82128127D01*
X188547130Y-82043102D01*
X188547419Y-81940297D01*
X188547550Y-81817787D01*
X188547585Y-81673645D01*
X188547586Y-81617319D01*
X188547570Y-81465093D01*
X188547480Y-81335177D01*
X188547254Y-81225646D01*
X188546829Y-81134573D01*
X188546141Y-81060033D01*
X188545128Y-81000100D01*
X188543727Y-80952846D01*
X188541875Y-80916347D01*
X188539509Y-80888677D01*
X188536567Y-80867908D01*
X188532985Y-80852116D01*
X188528700Y-80839374D01*
X188523651Y-80827756D01*
X188521677Y-80823569D01*
X188465429Y-80728686D01*
X188396004Y-80653868D01*
X188312418Y-80598233D01*
X188235662Y-80567245D01*
X188207232Y-80559493D01*
X188176008Y-80553710D01*
X188138025Y-80549626D01*
X188089317Y-80546974D01*
X188025921Y-80545486D01*
X187943871Y-80544894D01*
X187904235Y-80544848D01*
X187644771Y-80544848D01*
X187644771Y-81617319D01*
X187260733Y-81617319D01*
X187260871Y-81547462D01*
X187261292Y-81358097D01*
X187261735Y-81188499D01*
X187262214Y-81037550D01*
X187262747Y-80904132D01*
X187263348Y-80787128D01*
X187264034Y-80685421D01*
X187264821Y-80597892D01*
X187265464Y-80544848D01*
X187265724Y-80523425D01*
X187266760Y-80460902D01*
X187267945Y-80409204D01*
X187269293Y-80367216D01*
X187270822Y-80333818D01*
X187272548Y-80307894D01*
X187274485Y-80288327D01*
X187276650Y-80273998D01*
X187279059Y-80263790D01*
X187281728Y-80256585D01*
X187284673Y-80251267D01*
X187287909Y-80246717D01*
X187288029Y-80246555D01*
X187316890Y-80214214D01*
X187346510Y-80188106D01*
X187356096Y-80181567D01*
X187367198Y-80176281D01*
X187382325Y-80172113D01*
X187403988Y-80168932D01*
X187434696Y-80166605D01*
X187476959Y-80164999D01*
X187533288Y-80163980D01*
X187606191Y-80163416D01*
X187698180Y-80163174D01*
X187811763Y-80163121D01*
X187818376Y-80163121D01*
X188256746Y-80163121D01*
X188362917Y-80201108D01*
G37*
G36*
X198009101Y-80201108D02*
G01*
X198110122Y-80242085D01*
X198195089Y-80288428D01*
X198272184Y-80345233D01*
X198338273Y-80406188D01*
X198426290Y-80507270D01*
X198494712Y-80616956D01*
X198547395Y-80741455D01*
X198548540Y-80744800D01*
X198581555Y-80841747D01*
X198581555Y-81617319D01*
X198581555Y-82392892D01*
X198548540Y-82489838D01*
X198496200Y-82614785D01*
X198428217Y-82724765D01*
X198340736Y-82825986D01*
X198338273Y-82828450D01*
X198260628Y-82898936D01*
X198182183Y-82954216D01*
X198094662Y-82999432D01*
X198009101Y-83033039D01*
X197976046Y-83044551D01*
X197947624Y-83053474D01*
X197920079Y-83060193D01*
X197889653Y-83065093D01*
X197852592Y-83068560D01*
X197805139Y-83070979D01*
X197743538Y-83072734D01*
X197664034Y-83074211D01*
X197597270Y-83075262D01*
X197291610Y-83079987D01*
X197288253Y-83677761D01*
X197287462Y-83813578D01*
X197286685Y-83927266D01*
X197285828Y-84020929D01*
X197284795Y-84096675D01*
X197283492Y-84156610D01*
X197281824Y-84202840D01*
X197279698Y-84237472D01*
X197277018Y-84262611D01*
X197273689Y-84280365D01*
X197269618Y-84292840D01*
X197264709Y-84302141D01*
X197259910Y-84308989D01*
X197231835Y-84340692D01*
X197203250Y-84366092D01*
X197162595Y-84384840D01*
X197110096Y-84393966D01*
X197056535Y-84392541D01*
X197017691Y-84382099D01*
X196973904Y-84352487D01*
X196936506Y-84309983D01*
X196912724Y-84263412D01*
X196909270Y-84249667D01*
X196908522Y-84233405D01*
X196907838Y-84194215D01*
X196907220Y-84133404D01*
X196906672Y-84052279D01*
X196906195Y-83952151D01*
X196905791Y-83834325D01*
X196905464Y-83700110D01*
X196905215Y-83550814D01*
X196905046Y-83387745D01*
X196904960Y-83212211D01*
X196904959Y-83025520D01*
X196905046Y-82828979D01*
X196905222Y-82623897D01*
X196905490Y-82411582D01*
X196905759Y-82245329D01*
X196906212Y-81989960D01*
X196906638Y-81757710D01*
X196906916Y-81617319D01*
X197290954Y-81617319D01*
X197290954Y-82689790D01*
X197550418Y-82689790D01*
X197641193Y-82689486D01*
X197711701Y-82688395D01*
X197765907Y-82686249D01*
X197807776Y-82682780D01*
X197841272Y-82677720D01*
X197870360Y-82670802D01*
X197881845Y-82667393D01*
X197977323Y-82626301D01*
X198057862Y-82566722D01*
X198124447Y-82487776D01*
X198167860Y-82411069D01*
X198173194Y-82399388D01*
X198177741Y-82387262D01*
X198181563Y-82372765D01*
X198184724Y-82353971D01*
X198187286Y-82328953D01*
X198189312Y-82295786D01*
X198190865Y-82252543D01*
X198192007Y-82197299D01*
X198192803Y-82128127D01*
X198193313Y-82043102D01*
X198193603Y-81940297D01*
X198193733Y-81817787D01*
X198193768Y-81673645D01*
X198193769Y-81617319D01*
X198193753Y-81465093D01*
X198193664Y-81335177D01*
X198193437Y-81225646D01*
X198193012Y-81134573D01*
X198192324Y-81060033D01*
X198191311Y-81000100D01*
X198189910Y-80952846D01*
X198188058Y-80916347D01*
X198185692Y-80888677D01*
X198182750Y-80867908D01*
X198179168Y-80852116D01*
X198174884Y-80839374D01*
X198169834Y-80827756D01*
X198167860Y-80823569D01*
X198111613Y-80728686D01*
X198042187Y-80653868D01*
X197958601Y-80598233D01*
X197881845Y-80567245D01*
X197853416Y-80559493D01*
X197822192Y-80553710D01*
X197784208Y-80549626D01*
X197735500Y-80546974D01*
X197672104Y-80545486D01*
X197590054Y-80544894D01*
X197550418Y-80544848D01*
X197290954Y-80544848D01*
X197290954Y-81617319D01*
X196906916Y-81617319D01*
X196907054Y-81547462D01*
X196907476Y-81358097D01*
X196907918Y-81188499D01*
X196908397Y-81037550D01*
X196908930Y-80904132D01*
X196909531Y-80787128D01*
X196910217Y-80685421D01*
X196911004Y-80597892D01*
X196911647Y-80544848D01*
X196911907Y-80523425D01*
X196912943Y-80460902D01*
X196914128Y-80409204D01*
X196915477Y-80367216D01*
X196917006Y-80333818D01*
X196918731Y-80307894D01*
X196920668Y-80288327D01*
X196922833Y-80273998D01*
X196925242Y-80263790D01*
X196927911Y-80256585D01*
X196930856Y-80251267D01*
X196934092Y-80246717D01*
X196934212Y-80246555D01*
X196963073Y-80214214D01*
X196992693Y-80188106D01*
X197002279Y-80181567D01*
X197013381Y-80176281D01*
X197028508Y-80172113D01*
X197050171Y-80168932D01*
X197080879Y-80166605D01*
X197123143Y-80164999D01*
X197179471Y-80163980D01*
X197252375Y-80163416D01*
X197344363Y-80163174D01*
X197457946Y-80163121D01*
X197464559Y-80163121D01*
X197902929Y-80163121D01*
X198009101Y-80201108D01*
G37*
G36*
X195418670Y-71611175D02*
G01*
X195500789Y-71640560D01*
X195511954Y-71646413D01*
X195566138Y-71683436D01*
X195608853Y-71731320D01*
X195644327Y-71795423D01*
X195660437Y-71834614D01*
X195667567Y-71852667D01*
X195683295Y-71891927D01*
X195707113Y-71951141D01*
X195738513Y-72029055D01*
X195776988Y-72124415D01*
X195822030Y-72235967D01*
X195873132Y-72362458D01*
X195929784Y-72502633D01*
X195991481Y-72655239D01*
X196057714Y-72819022D01*
X196127975Y-72992729D01*
X196201757Y-73175104D01*
X196278552Y-73364896D01*
X196357853Y-73560849D01*
X196439151Y-73761711D01*
X196521939Y-73966226D01*
X196605710Y-74173142D01*
X196689955Y-74381205D01*
X196774168Y-74589161D01*
X196857839Y-74795756D01*
X196940463Y-74999736D01*
X197021530Y-75199848D01*
X197100533Y-75394837D01*
X197176965Y-75583450D01*
X197250318Y-75764433D01*
X197320084Y-75936533D01*
X197385755Y-76098495D01*
X197446824Y-76249066D01*
X197502783Y-76386991D01*
X197553125Y-76511018D01*
X197597341Y-76619892D01*
X197634925Y-76712360D01*
X197665367Y-76787167D01*
X197688162Y-76843060D01*
X197702800Y-76878786D01*
X197707944Y-76891174D01*
X197733334Y-76973947D01*
X197736526Y-77054033D01*
X197717752Y-77137932D01*
X197716799Y-77140732D01*
X197710889Y-77159668D01*
X197698808Y-77199845D01*
X197681151Y-77259230D01*
X197658510Y-77335791D01*
X197631481Y-77427495D01*
X197600656Y-77532310D01*
X197566630Y-77648203D01*
X197529997Y-77773141D01*
X197491349Y-77905092D01*
X197451282Y-78042023D01*
X197410388Y-78181902D01*
X197369263Y-78322696D01*
X197328498Y-78462373D01*
X197288689Y-78598899D01*
X197250430Y-78730243D01*
X197214313Y-78854371D01*
X197180933Y-78969252D01*
X197150883Y-79072852D01*
X197124758Y-79163139D01*
X197103152Y-79238080D01*
X197086657Y-79295643D01*
X197075869Y-79333796D01*
X197072465Y-79346208D01*
X197042836Y-79413004D01*
X196994641Y-79470241D01*
X196932533Y-79515309D01*
X196861167Y-79545596D01*
X196785195Y-79558493D01*
X196709271Y-79551390D01*
X196707470Y-79550948D01*
X196666614Y-79537666D01*
X196623247Y-79519247D01*
X196616582Y-79515928D01*
X196601782Y-79509428D01*
X196565448Y-79494019D01*
X196508442Y-79470058D01*
X196431624Y-79437902D01*
X196335857Y-79397911D01*
X196222001Y-79350441D01*
X196090918Y-79295850D01*
X195943469Y-79234497D01*
X195780515Y-79166738D01*
X195602917Y-79092932D01*
X195411537Y-79013436D01*
X195207236Y-78928609D01*
X194990875Y-78838807D01*
X194763315Y-78744390D01*
X194525418Y-78645714D01*
X194278045Y-78543137D01*
X194022057Y-78437017D01*
X193758316Y-78327713D01*
X193487682Y-78215581D01*
X193211017Y-78100979D01*
X193055601Y-78036615D01*
X192776004Y-77920828D01*
X192501973Y-77807341D01*
X192234368Y-77696510D01*
X191974048Y-77588693D01*
X191721876Y-77484246D01*
X191478711Y-77383524D01*
X191245414Y-77286886D01*
X191022845Y-77194687D01*
X190811865Y-77107283D01*
X190613334Y-77025032D01*
X190428113Y-76948290D01*
X190257063Y-76877413D01*
X190101043Y-76812758D01*
X190024893Y-76781198D01*
X191610419Y-76781198D01*
X191621044Y-76786088D01*
X191652748Y-76799691D01*
X191704213Y-76821459D01*
X191774121Y-76850847D01*
X191861152Y-76887306D01*
X191963989Y-76930291D01*
X192081313Y-76979253D01*
X192211805Y-77033648D01*
X192354147Y-77092927D01*
X192507020Y-77156544D01*
X192669106Y-77223952D01*
X192839085Y-77294604D01*
X193015640Y-77367954D01*
X193197452Y-77443454D01*
X193383202Y-77520559D01*
X193571571Y-77598720D01*
X193761242Y-77677391D01*
X193950896Y-77756026D01*
X194139213Y-77834077D01*
X194324876Y-77910998D01*
X194506566Y-77986242D01*
X194682964Y-78059262D01*
X194852751Y-78129512D01*
X195014610Y-78196443D01*
X195167222Y-78259511D01*
X195309267Y-78318167D01*
X195439428Y-78371865D01*
X195556386Y-78420058D01*
X195658822Y-78462200D01*
X195745418Y-78497743D01*
X195814855Y-78526141D01*
X195865815Y-78546847D01*
X195896978Y-78559314D01*
X195907043Y-78563033D01*
X195900729Y-78553008D01*
X195881318Y-78524859D01*
X195849900Y-78480113D01*
X195807561Y-78420300D01*
X195755392Y-78346947D01*
X195694480Y-78261581D01*
X195625915Y-78165730D01*
X195550785Y-78060923D01*
X195470178Y-77948686D01*
X195385184Y-77830549D01*
X195380840Y-77824516D01*
X195295323Y-77705946D01*
X195213741Y-77593178D01*
X195137220Y-77487750D01*
X195066888Y-77391200D01*
X195003873Y-77305065D01*
X194949303Y-77230882D01*
X194904306Y-77170189D01*
X194901607Y-77166596D01*
X195660300Y-77166596D01*
X195665764Y-77177458D01*
X195683999Y-77205803D01*
X195713531Y-77249503D01*
X195752885Y-77306433D01*
X195800588Y-77374465D01*
X195855165Y-77451473D01*
X195915144Y-77535331D01*
X195934794Y-77562649D01*
X195996374Y-77647926D01*
X196053473Y-77726573D01*
X196104566Y-77796522D01*
X196148128Y-77855702D01*
X196182633Y-77902046D01*
X196206555Y-77933482D01*
X196218369Y-77947943D01*
X196219341Y-77948649D01*
X196218056Y-77936273D01*
X196212614Y-77903020D01*
X196203542Y-77851790D01*
X196191371Y-77785486D01*
X196176627Y-77707010D01*
X196159840Y-77619263D01*
X196151679Y-77577113D01*
X196133848Y-77485997D01*
X196117318Y-77402778D01*
X196102690Y-77330375D01*
X196090562Y-77271707D01*
X196089269Y-77265689D01*
X196712447Y-77265689D01*
X196712893Y-77278731D01*
X196717481Y-77311722D01*
X196725517Y-77361025D01*
X196736309Y-77423005D01*
X196749164Y-77494028D01*
X196763388Y-77570458D01*
X196778288Y-77648659D01*
X196793172Y-77724997D01*
X196807347Y-77795835D01*
X196820118Y-77857540D01*
X196830793Y-77906474D01*
X196838680Y-77939004D01*
X196843084Y-77951494D01*
X196843207Y-77951527D01*
X196848400Y-77940369D01*
X196859303Y-77908880D01*
X196874981Y-77860036D01*
X196894502Y-77796816D01*
X196916932Y-77722196D01*
X196941337Y-77639154D01*
X196943579Y-77631438D01*
X196967923Y-77547155D01*
X196989883Y-77470361D01*
X197008588Y-77404166D01*
X197023165Y-77351682D01*
X197032744Y-77316018D01*
X197036452Y-77300283D01*
X197036469Y-77300005D01*
X197025278Y-77295258D01*
X196995297Y-77289433D01*
X196951917Y-77283100D01*
X196900531Y-77276830D01*
X196846528Y-77271194D01*
X196795301Y-77266763D01*
X196752239Y-77264107D01*
X196722735Y-77263799D01*
X196712447Y-77265689D01*
X196089269Y-77265689D01*
X196081534Y-77229694D01*
X196076203Y-77207253D01*
X196075172Y-77204320D01*
X196061490Y-77201042D01*
X196028662Y-77196481D01*
X195981549Y-77191078D01*
X195925015Y-77185275D01*
X195863921Y-77179516D01*
X195803129Y-77174241D01*
X195747500Y-77169893D01*
X195701898Y-77166915D01*
X195671182Y-77165747D01*
X195660300Y-77166596D01*
X194901607Y-77166596D01*
X194870008Y-77124523D01*
X194847539Y-77095422D01*
X194838025Y-77084424D01*
X194837937Y-77084384D01*
X194824332Y-77082669D01*
X194788410Y-77078890D01*
X194731877Y-77073206D01*
X194656438Y-77065779D01*
X194563802Y-77056768D01*
X194455673Y-77046335D01*
X194333759Y-77034638D01*
X194199765Y-77021838D01*
X194055398Y-77008097D01*
X193902366Y-76993573D01*
X193742373Y-76978428D01*
X193577126Y-76962821D01*
X193408332Y-76946913D01*
X193237697Y-76930864D01*
X193066927Y-76914835D01*
X192897729Y-76898986D01*
X192731810Y-76883476D01*
X192570875Y-76868467D01*
X192416631Y-76854119D01*
X192270784Y-76840592D01*
X192135042Y-76828045D01*
X192011109Y-76816641D01*
X191900693Y-76806538D01*
X191805499Y-76797897D01*
X191727235Y-76790879D01*
X191667607Y-76785644D01*
X191628320Y-76782351D01*
X191611082Y-76781162D01*
X191610419Y-76781198D01*
X190024893Y-76781198D01*
X189960914Y-76754682D01*
X189837537Y-76703540D01*
X189731773Y-76659690D01*
X189644481Y-76623488D01*
X189576522Y-76595290D01*
X189528757Y-76575453D01*
X189502046Y-76564334D01*
X189496620Y-76562055D01*
X189428230Y-76520198D01*
X189375366Y-76462323D01*
X189339773Y-76392350D01*
X189323197Y-76314199D01*
X189327384Y-76231788D01*
X189335050Y-76199241D01*
X189345885Y-76166316D01*
X189359281Y-76138713D01*
X189379020Y-76111307D01*
X189408883Y-76078974D01*
X189441531Y-76047360D01*
X190341665Y-76047360D01*
X190341668Y-76047502D01*
X190354249Y-76049344D01*
X190389701Y-76053338D01*
X190446763Y-76059358D01*
X190524177Y-76067283D01*
X190620683Y-76076988D01*
X190735022Y-76088351D01*
X190865934Y-76101248D01*
X191012159Y-76115556D01*
X191172439Y-76131152D01*
X191345514Y-76147912D01*
X191530124Y-76165714D01*
X191725010Y-76184434D01*
X191928913Y-76203949D01*
X192140573Y-76224135D01*
X192350258Y-76244065D01*
X192568246Y-76264753D01*
X192779726Y-76284828D01*
X192983436Y-76304170D01*
X193178112Y-76322658D01*
X193362494Y-76340174D01*
X193535318Y-76356596D01*
X193695323Y-76371804D01*
X193841246Y-76385680D01*
X193971825Y-76398102D01*
X194085797Y-76408951D01*
X194181901Y-76418106D01*
X194258874Y-76425448D01*
X194315454Y-76430857D01*
X194350379Y-76434212D01*
X194362360Y-76435390D01*
X194369167Y-76428357D01*
X194368419Y-76424792D01*
X194360953Y-76413614D01*
X194340185Y-76383994D01*
X194306989Y-76337152D01*
X194262237Y-76274305D01*
X194206803Y-76196673D01*
X194141557Y-76105473D01*
X194067375Y-76001924D01*
X193985127Y-75887245D01*
X193895688Y-75762653D01*
X193799929Y-75629369D01*
X193698725Y-75488609D01*
X193592946Y-75341593D01*
X193516097Y-75234849D01*
X193406905Y-75083211D01*
X193301173Y-74936372D01*
X193269631Y-74892564D01*
X194021037Y-74892564D01*
X194023041Y-74899014D01*
X194037572Y-74922409D01*
X194062856Y-74960127D01*
X194097116Y-75009547D01*
X194138578Y-75068046D01*
X194161078Y-75099359D01*
X194197784Y-75150269D01*
X194246722Y-75218213D01*
X194305982Y-75300538D01*
X194373657Y-75394593D01*
X194447839Y-75497725D01*
X194526621Y-75607282D01*
X194608095Y-75720612D01*
X194690353Y-75835064D01*
X194739550Y-75903531D01*
X194815630Y-76009392D01*
X194887558Y-76109421D01*
X194954080Y-76201878D01*
X195013943Y-76285022D01*
X195065892Y-76357115D01*
X195108674Y-76416416D01*
X195141035Y-76461184D01*
X195161721Y-76489681D01*
X195169437Y-76500119D01*
X195182444Y-76502999D01*
X195216042Y-76507817D01*
X195266696Y-76514196D01*
X195330870Y-76521760D01*
X195405029Y-76530132D01*
X195485639Y-76538935D01*
X195569164Y-76547792D01*
X195652069Y-76556326D01*
X195730819Y-76564160D01*
X195801879Y-76570917D01*
X195861713Y-76576221D01*
X195906787Y-76579694D01*
X195925927Y-76580769D01*
X195950040Y-76579141D01*
X195956268Y-76567788D01*
X195954114Y-76554891D01*
X195949113Y-76530978D01*
X195941268Y-76490397D01*
X195931956Y-76440343D01*
X195927999Y-76418560D01*
X195918584Y-76367743D01*
X195910102Y-76324462D01*
X195903886Y-76295417D01*
X195902219Y-76288898D01*
X195892139Y-76279932D01*
X195864162Y-76257816D01*
X195819919Y-76223757D01*
X195761038Y-76178966D01*
X195689149Y-76124650D01*
X195605880Y-76062021D01*
X195512860Y-75992285D01*
X195411718Y-75916653D01*
X195304083Y-75836333D01*
X195191583Y-75752535D01*
X195075849Y-75666468D01*
X194958508Y-75579341D01*
X194841189Y-75492362D01*
X194725522Y-75406742D01*
X194613136Y-75323688D01*
X194505658Y-75244411D01*
X194404719Y-75170118D01*
X194311947Y-75102021D01*
X194228971Y-75041326D01*
X194157420Y-74989244D01*
X194098923Y-74946984D01*
X194055109Y-74915754D01*
X194027606Y-74896764D01*
X194021037Y-74892564D01*
X193269631Y-74892564D01*
X193199820Y-74795607D01*
X193103765Y-74662193D01*
X193013926Y-74537405D01*
X192931222Y-74422519D01*
X192856570Y-74318811D01*
X192790890Y-74227558D01*
X192735099Y-74150034D01*
X192690117Y-74087517D01*
X192656862Y-74041281D01*
X192636252Y-74012604D01*
X192630055Y-74003960D01*
X192592295Y-73951069D01*
X191463689Y-74995993D01*
X191323631Y-75125763D01*
X191188680Y-75250994D01*
X191059886Y-75370700D01*
X190938299Y-75483899D01*
X190824969Y-75589604D01*
X190720948Y-75686831D01*
X190627285Y-75774597D01*
X190545031Y-75851916D01*
X190475237Y-75917805D01*
X190418953Y-75971278D01*
X190377229Y-76011351D01*
X190351116Y-76037040D01*
X190341665Y-76047360D01*
X189441531Y-76047360D01*
X189452652Y-76036591D01*
X189460658Y-76029043D01*
X189481651Y-76009432D01*
X189519361Y-75974366D01*
X189572712Y-75924842D01*
X189640624Y-75861860D01*
X189722020Y-75786417D01*
X189815822Y-75699511D01*
X189920952Y-75602141D01*
X190036331Y-75495305D01*
X190160883Y-75380001D01*
X190293529Y-75257228D01*
X190433190Y-75127983D01*
X190578790Y-74993266D01*
X190729250Y-74854073D01*
X190883492Y-74711405D01*
X190898540Y-74697487D01*
X191053198Y-74554415D01*
X191204232Y-74414635D01*
X191350559Y-74279152D01*
X191491095Y-74148971D01*
X191624758Y-74025097D01*
X191750465Y-73908535D01*
X191867132Y-73800292D01*
X191973677Y-73701370D01*
X192069017Y-73612777D01*
X192152068Y-73535517D01*
X192221748Y-73470596D01*
X192276973Y-73419018D01*
X192316661Y-73381788D01*
X192339728Y-73359913D01*
X192340943Y-73358740D01*
X192405782Y-73298425D01*
X192459828Y-73254662D01*
X192507437Y-73225086D01*
X192552965Y-73207331D01*
X192600768Y-73199032D01*
X192637685Y-73197581D01*
X192669955Y-73198168D01*
X192698220Y-73201024D01*
X192725579Y-73207794D01*
X192755134Y-73220121D01*
X192789982Y-73239650D01*
X192833223Y-73268024D01*
X192887959Y-73306887D01*
X192957287Y-73357884D01*
X193000474Y-73389997D01*
X193062746Y-73436267D01*
X193139057Y-73492790D01*
X193228077Y-73558589D01*
X193328477Y-73632690D01*
X193438927Y-73714116D01*
X193558096Y-73801893D01*
X193684655Y-73895044D01*
X193817274Y-73992594D01*
X193954623Y-74093567D01*
X194095371Y-74196988D01*
X194238190Y-74301881D01*
X194381749Y-74407270D01*
X194524719Y-74512180D01*
X194665768Y-74615635D01*
X194803569Y-74716660D01*
X194936789Y-74814278D01*
X195064100Y-74907515D01*
X195184172Y-74995395D01*
X195295674Y-75076941D01*
X195397278Y-75151179D01*
X195487652Y-75217133D01*
X195565467Y-75273827D01*
X195629393Y-75320285D01*
X195678100Y-75355532D01*
X195710259Y-75378593D01*
X195724538Y-75388491D01*
X195725155Y-75388802D01*
X195723299Y-75376737D01*
X195717064Y-75342218D01*
X195706706Y-75286580D01*
X195692481Y-75211157D01*
X195674645Y-75117286D01*
X195653455Y-75006300D01*
X195642952Y-74951480D01*
X196263680Y-74951480D01*
X196264815Y-74964058D01*
X196270131Y-74997892D01*
X196279169Y-75050445D01*
X196291475Y-75119186D01*
X196306592Y-75201578D01*
X196324063Y-75295087D01*
X196343433Y-75397181D01*
X196351460Y-75439073D01*
X196374593Y-75559171D01*
X196393781Y-75657723D01*
X196409585Y-75736998D01*
X196422564Y-75799262D01*
X196433281Y-75846785D01*
X196442294Y-75881835D01*
X196450166Y-75906679D01*
X196457455Y-75923586D01*
X196464724Y-75934824D01*
X196472531Y-75942661D01*
X196476721Y-75945945D01*
X196499385Y-75962859D01*
X196536128Y-75990307D01*
X196581619Y-76024305D01*
X196624407Y-76056294D01*
X196669519Y-76089424D01*
X196707175Y-76115943D01*
X196733434Y-76133153D01*
X196744350Y-76138362D01*
X196740853Y-76126695D01*
X196729042Y-76094663D01*
X196709738Y-76044352D01*
X196683761Y-75977846D01*
X196651933Y-75897230D01*
X196615074Y-75804588D01*
X196574006Y-75702005D01*
X196529550Y-75591567D01*
X196508883Y-75540420D01*
X196463040Y-75427410D01*
X196419880Y-75321623D01*
X196380256Y-75225108D01*
X196345022Y-75139914D01*
X196315028Y-75068088D01*
X196291130Y-75011680D01*
X196274179Y-74972737D01*
X196265028Y-74953308D01*
X196263680Y-74951480D01*
X195642952Y-74951480D01*
X195638454Y-74928006D01*
X196248779Y-74928006D01*
X196254838Y-74934065D01*
X196260897Y-74928006D01*
X196254838Y-74921947D01*
X196248779Y-74928006D01*
X195638454Y-74928006D01*
X195629167Y-74879536D01*
X195602037Y-74738328D01*
X195572320Y-74584011D01*
X195540274Y-74417920D01*
X195506154Y-74241391D01*
X195470216Y-74055758D01*
X195432717Y-73862357D01*
X195398159Y-73684374D01*
X195344315Y-73406702D01*
X195295290Y-73152719D01*
X195251072Y-72922364D01*
X195211648Y-72715576D01*
X195177009Y-72532293D01*
X195147142Y-72372455D01*
X195122036Y-72235999D01*
X195101679Y-72122865D01*
X195086061Y-72032991D01*
X195075169Y-71966316D01*
X195068994Y-71922779D01*
X195067440Y-71904485D01*
X195077139Y-71818940D01*
X195106970Y-71746627D01*
X195157342Y-71686696D01*
X195180915Y-71667745D01*
X195257875Y-71624823D01*
X195337413Y-71605948D01*
X195418670Y-71611175D01*
G37*
G04 #@! TO.C,J1*
G36*
X137336500Y-93061500D02*
G01*
X136636500Y-93061500D01*
X136636500Y-93261500D01*
X137336500Y-93261500D01*
X137336500Y-93061500D01*
G37*
G36*
X137336500Y-93461500D02*
G01*
X136636500Y-93461500D01*
X136636500Y-93661500D01*
X137336500Y-93661500D01*
X137336500Y-93461500D01*
G37*
G36*
X137336500Y-93861500D02*
G01*
X136636500Y-93861500D01*
X136636500Y-94061500D01*
X137336500Y-94061500D01*
X137336500Y-93861500D01*
G37*
G36*
X137336500Y-94261500D02*
G01*
X136636500Y-94261500D01*
X136636500Y-94461500D01*
X137336500Y-94461500D01*
X137336500Y-94261500D01*
G37*
G36*
X137336500Y-94661500D02*
G01*
X136636500Y-94661500D01*
X136636500Y-94861500D01*
X137336500Y-94861500D01*
X137336500Y-94661500D01*
G37*
G36*
X137336500Y-95061500D02*
G01*
X136636500Y-95061500D01*
X136636500Y-95261500D01*
X137336500Y-95261500D01*
X137336500Y-95061500D01*
G37*
G36*
X137336500Y-95461500D02*
G01*
X136636500Y-95461500D01*
X136636500Y-95661500D01*
X137336500Y-95661500D01*
X137336500Y-95461500D01*
G37*
G36*
X137336500Y-95861500D02*
G01*
X136636500Y-95861500D01*
X136636500Y-96061500D01*
X137336500Y-96061500D01*
X137336500Y-95861500D01*
G37*
G36*
X137336500Y-96261500D02*
G01*
X136636500Y-96261500D01*
X136636500Y-96461500D01*
X137336500Y-96461500D01*
X137336500Y-96261500D01*
G37*
G36*
X137336500Y-96661500D02*
G01*
X136636500Y-96661500D01*
X136636500Y-96861500D01*
X137336500Y-96861500D01*
X137336500Y-96661500D01*
G37*
G36*
X137336500Y-97061500D02*
G01*
X136636500Y-97061500D01*
X136636500Y-97261500D01*
X137336500Y-97261500D01*
X137336500Y-97061500D01*
G37*
G36*
X137336500Y-97461500D02*
G01*
X136636500Y-97461500D01*
X136636500Y-97661500D01*
X137336500Y-97661500D01*
X137336500Y-97461500D01*
G37*
G36*
X137336500Y-97861500D02*
G01*
X136636500Y-97861500D01*
X136636500Y-98061500D01*
X137336500Y-98061500D01*
X137336500Y-97861500D01*
G37*
G36*
X137336500Y-98261500D02*
G01*
X136636500Y-98261500D01*
X136636500Y-98461500D01*
X137336500Y-98461500D01*
X137336500Y-98261500D01*
G37*
G36*
X137336500Y-98661500D02*
G01*
X136636500Y-98661500D01*
X136636500Y-98861500D01*
X137336500Y-98861500D01*
X137336500Y-98661500D01*
G37*
G36*
X137336500Y-99061500D02*
G01*
X136636500Y-99061500D01*
X136636500Y-99261500D01*
X137336500Y-99261500D01*
X137336500Y-99061500D01*
G37*
G36*
X137336500Y-99461500D02*
G01*
X136636500Y-99461500D01*
X136636500Y-99661500D01*
X137336500Y-99661500D01*
X137336500Y-99461500D01*
G37*
G36*
X137336500Y-99861500D02*
G01*
X136636500Y-99861500D01*
X136636500Y-100061500D01*
X137336500Y-100061500D01*
X137336500Y-99861500D01*
G37*
G36*
X137336500Y-100261500D02*
G01*
X136636500Y-100261500D01*
X136636500Y-100461500D01*
X137336500Y-100461500D01*
X137336500Y-100261500D01*
G37*
G36*
X137336500Y-100661500D02*
G01*
X136636500Y-100661500D01*
X136636500Y-100861500D01*
X137336500Y-100861500D01*
X137336500Y-100661500D01*
G37*
G36*
X137336500Y-101061500D02*
G01*
X136636500Y-101061500D01*
X136636500Y-101261500D01*
X137336500Y-101261500D01*
X137336500Y-101061500D01*
G37*
G36*
X137336500Y-101461500D02*
G01*
X136636500Y-101461500D01*
X136636500Y-101661500D01*
X137336500Y-101661500D01*
X137336500Y-101461500D01*
G37*
G36*
X137336500Y-101861500D02*
G01*
X136636500Y-101861500D01*
X136636500Y-102061500D01*
X137336500Y-102061500D01*
X137336500Y-101861500D01*
G37*
G36*
X137336500Y-102261500D02*
G01*
X136636500Y-102261500D01*
X136636500Y-102461500D01*
X137336500Y-102461500D01*
X137336500Y-102261500D01*
G37*
G36*
X137336500Y-102661500D02*
G01*
X136636500Y-102661500D01*
X136636500Y-102861500D01*
X137336500Y-102861500D01*
X137336500Y-102661500D01*
G37*
G36*
X137336500Y-103061500D02*
G01*
X136636500Y-103061500D01*
X136636500Y-103261500D01*
X137336500Y-103261500D01*
X137336500Y-103061500D01*
G37*
G36*
X137336500Y-103461500D02*
G01*
X136636500Y-103461500D01*
X136636500Y-103661500D01*
X137336500Y-103661500D01*
X137336500Y-103461500D01*
G37*
G36*
X137336500Y-103861500D02*
G01*
X136636500Y-103861500D01*
X136636500Y-104061500D01*
X137336500Y-104061500D01*
X137336500Y-103861500D01*
G37*
G36*
X137336500Y-104261500D02*
G01*
X136636500Y-104261500D01*
X136636500Y-104461500D01*
X137336500Y-104461500D01*
X137336500Y-104261500D01*
G37*
G36*
X137336500Y-104661500D02*
G01*
X136636500Y-104661500D01*
X136636500Y-104861500D01*
X137336500Y-104861500D01*
X137336500Y-104661500D01*
G37*
G36*
X137336500Y-105061500D02*
G01*
X136636500Y-105061500D01*
X136636500Y-105261500D01*
X137336500Y-105261500D01*
X137336500Y-105061500D01*
G37*
G36*
X137336500Y-105461500D02*
G01*
X136636500Y-105461500D01*
X136636500Y-105661500D01*
X137336500Y-105661500D01*
X137336500Y-105461500D01*
G37*
G36*
X137336500Y-105861500D02*
G01*
X136636500Y-105861500D01*
X136636500Y-106061500D01*
X137336500Y-106061500D01*
X137336500Y-105861500D01*
G37*
G36*
X137336500Y-106261500D02*
G01*
X136636500Y-106261500D01*
X136636500Y-106461500D01*
X137336500Y-106461500D01*
X137336500Y-106261500D01*
G37*
G36*
X139716500Y-93261500D02*
G01*
X140416500Y-93261500D01*
X140416500Y-93061500D01*
X139716500Y-93061500D01*
X139716500Y-93261500D01*
G37*
G36*
X139716500Y-93661500D02*
G01*
X140416500Y-93661500D01*
X140416500Y-93461500D01*
X139716500Y-93461500D01*
X139716500Y-93661500D01*
G37*
G36*
X139716500Y-94061500D02*
G01*
X140416500Y-94061500D01*
X140416500Y-93861500D01*
X139716500Y-93861500D01*
X139716500Y-94061500D01*
G37*
G36*
X139716500Y-94461500D02*
G01*
X140416500Y-94461500D01*
X140416500Y-94261500D01*
X139716500Y-94261500D01*
X139716500Y-94461500D01*
G37*
G36*
X139716500Y-94861500D02*
G01*
X140416500Y-94861500D01*
X140416500Y-94661500D01*
X139716500Y-94661500D01*
X139716500Y-94861500D01*
G37*
G36*
X139716500Y-95261500D02*
G01*
X140416500Y-95261500D01*
X140416500Y-95061500D01*
X139716500Y-95061500D01*
X139716500Y-95261500D01*
G37*
G36*
X139716500Y-95661500D02*
G01*
X140416500Y-95661500D01*
X140416500Y-95461500D01*
X139716500Y-95461500D01*
X139716500Y-95661500D01*
G37*
G36*
X139716500Y-96061500D02*
G01*
X140416500Y-96061500D01*
X140416500Y-95861500D01*
X139716500Y-95861500D01*
X139716500Y-96061500D01*
G37*
G36*
X139716500Y-96461500D02*
G01*
X140416500Y-96461500D01*
X140416500Y-96261500D01*
X139716500Y-96261500D01*
X139716500Y-96461500D01*
G37*
G36*
X139716500Y-96861500D02*
G01*
X140416500Y-96861500D01*
X140416500Y-96661500D01*
X139716500Y-96661500D01*
X139716500Y-96861500D01*
G37*
G36*
X139716500Y-97261500D02*
G01*
X140416500Y-97261500D01*
X140416500Y-97061500D01*
X139716500Y-97061500D01*
X139716500Y-97261500D01*
G37*
G36*
X139716500Y-97661500D02*
G01*
X140416500Y-97661500D01*
X140416500Y-97461500D01*
X139716500Y-97461500D01*
X139716500Y-97661500D01*
G37*
G36*
X139716500Y-98061500D02*
G01*
X140416500Y-98061500D01*
X140416500Y-97861500D01*
X139716500Y-97861500D01*
X139716500Y-98061500D01*
G37*
G36*
X139716500Y-98461500D02*
G01*
X140416500Y-98461500D01*
X140416500Y-98261500D01*
X139716500Y-98261500D01*
X139716500Y-98461500D01*
G37*
G36*
X139716500Y-98861500D02*
G01*
X140416500Y-98861500D01*
X140416500Y-98661500D01*
X139716500Y-98661500D01*
X139716500Y-98861500D01*
G37*
G36*
X139716500Y-99261500D02*
G01*
X140416500Y-99261500D01*
X140416500Y-99061500D01*
X139716500Y-99061500D01*
X139716500Y-99261500D01*
G37*
G36*
X139716500Y-99661500D02*
G01*
X140416500Y-99661500D01*
X140416500Y-99461500D01*
X139716500Y-99461500D01*
X139716500Y-99661500D01*
G37*
G36*
X139716500Y-100061500D02*
G01*
X140416500Y-100061500D01*
X140416500Y-99861500D01*
X139716500Y-99861500D01*
X139716500Y-100061500D01*
G37*
G36*
X139716500Y-100461500D02*
G01*
X140416500Y-100461500D01*
X140416500Y-100261500D01*
X139716500Y-100261500D01*
X139716500Y-100461500D01*
G37*
G36*
X139716500Y-100861500D02*
G01*
X140416500Y-100861500D01*
X140416500Y-100661500D01*
X139716500Y-100661500D01*
X139716500Y-100861500D01*
G37*
G36*
X139716500Y-101261500D02*
G01*
X140416500Y-101261500D01*
X140416500Y-101061500D01*
X139716500Y-101061500D01*
X139716500Y-101261500D01*
G37*
G36*
X139716500Y-101661500D02*
G01*
X140416500Y-101661500D01*
X140416500Y-101461500D01*
X139716500Y-101461500D01*
X139716500Y-101661500D01*
G37*
G36*
X139716500Y-102061500D02*
G01*
X140416500Y-102061500D01*
X140416500Y-101861500D01*
X139716500Y-101861500D01*
X139716500Y-102061500D01*
G37*
G36*
X139716500Y-102461500D02*
G01*
X140416500Y-102461500D01*
X140416500Y-102261500D01*
X139716500Y-102261500D01*
X139716500Y-102461500D01*
G37*
G36*
X139716500Y-102861500D02*
G01*
X140416500Y-102861500D01*
X140416500Y-102661500D01*
X139716500Y-102661500D01*
X139716500Y-102861500D01*
G37*
G36*
X139716500Y-103261500D02*
G01*
X140416500Y-103261500D01*
X140416500Y-103061500D01*
X139716500Y-103061500D01*
X139716500Y-103261500D01*
G37*
G36*
X139716500Y-103661500D02*
G01*
X140416500Y-103661500D01*
X140416500Y-103461500D01*
X139716500Y-103461500D01*
X139716500Y-103661500D01*
G37*
G36*
X139716500Y-104061500D02*
G01*
X140416500Y-104061500D01*
X140416500Y-103861500D01*
X139716500Y-103861500D01*
X139716500Y-104061500D01*
G37*
G36*
X139716500Y-104461500D02*
G01*
X140416500Y-104461500D01*
X140416500Y-104261500D01*
X139716500Y-104261500D01*
X139716500Y-104461500D01*
G37*
G36*
X139716500Y-104861500D02*
G01*
X140416500Y-104861500D01*
X140416500Y-104661500D01*
X139716500Y-104661500D01*
X139716500Y-104861500D01*
G37*
G36*
X139716500Y-105261500D02*
G01*
X140416500Y-105261500D01*
X140416500Y-105061500D01*
X139716500Y-105061500D01*
X139716500Y-105261500D01*
G37*
G36*
X139716500Y-105661500D02*
G01*
X140416500Y-105661500D01*
X140416500Y-105461500D01*
X139716500Y-105461500D01*
X139716500Y-105661500D01*
G37*
G36*
X139716500Y-106061500D02*
G01*
X140416500Y-106061500D01*
X140416500Y-105861500D01*
X139716500Y-105861500D01*
X139716500Y-106061500D01*
G37*
G36*
X139716500Y-106461500D02*
G01*
X140416500Y-106461500D01*
X140416500Y-106261500D01*
X139716500Y-106261500D01*
X139716500Y-106461500D01*
G37*
G36*
X139716500Y-106861500D02*
G01*
X140416500Y-106861500D01*
X140416500Y-106661500D01*
X139716500Y-106661500D01*
X139716500Y-106861500D01*
G37*
G04 #@! TO.C,J5*
G36*
X171745750Y-93050000D02*
G01*
X171045750Y-93050000D01*
X171045750Y-93250000D01*
X171745750Y-93250000D01*
X171745750Y-93050000D01*
G37*
G36*
X171745750Y-93450000D02*
G01*
X171045750Y-93450000D01*
X171045750Y-93650000D01*
X171745750Y-93650000D01*
X171745750Y-93450000D01*
G37*
G36*
X171745750Y-93850000D02*
G01*
X171045750Y-93850000D01*
X171045750Y-94050000D01*
X171745750Y-94050000D01*
X171745750Y-93850000D01*
G37*
G36*
X171745750Y-94250000D02*
G01*
X171045750Y-94250000D01*
X171045750Y-94450000D01*
X171745750Y-94450000D01*
X171745750Y-94250000D01*
G37*
G36*
X171745750Y-94650000D02*
G01*
X171045750Y-94650000D01*
X171045750Y-94850000D01*
X171745750Y-94850000D01*
X171745750Y-94650000D01*
G37*
G36*
X171745750Y-95050000D02*
G01*
X171045750Y-95050000D01*
X171045750Y-95250000D01*
X171745750Y-95250000D01*
X171745750Y-95050000D01*
G37*
G36*
X171745750Y-95450000D02*
G01*
X171045750Y-95450000D01*
X171045750Y-95650000D01*
X171745750Y-95650000D01*
X171745750Y-95450000D01*
G37*
G36*
X171745750Y-95850000D02*
G01*
X171045750Y-95850000D01*
X171045750Y-96050000D01*
X171745750Y-96050000D01*
X171745750Y-95850000D01*
G37*
G36*
X171745750Y-96250000D02*
G01*
X171045750Y-96250000D01*
X171045750Y-96450000D01*
X171745750Y-96450000D01*
X171745750Y-96250000D01*
G37*
G36*
X171745750Y-96650000D02*
G01*
X171045750Y-96650000D01*
X171045750Y-96850000D01*
X171745750Y-96850000D01*
X171745750Y-96650000D01*
G37*
G36*
X171745750Y-97050000D02*
G01*
X171045750Y-97050000D01*
X171045750Y-97250000D01*
X171745750Y-97250000D01*
X171745750Y-97050000D01*
G37*
G36*
X171745750Y-97450000D02*
G01*
X171045750Y-97450000D01*
X171045750Y-97650000D01*
X171745750Y-97650000D01*
X171745750Y-97450000D01*
G37*
G36*
X171745750Y-97850000D02*
G01*
X171045750Y-97850000D01*
X171045750Y-98050000D01*
X171745750Y-98050000D01*
X171745750Y-97850000D01*
G37*
G36*
X171745750Y-98250000D02*
G01*
X171045750Y-98250000D01*
X171045750Y-98450000D01*
X171745750Y-98450000D01*
X171745750Y-98250000D01*
G37*
G36*
X171745750Y-98650000D02*
G01*
X171045750Y-98650000D01*
X171045750Y-98850000D01*
X171745750Y-98850000D01*
X171745750Y-98650000D01*
G37*
G36*
X171745750Y-99050000D02*
G01*
X171045750Y-99050000D01*
X171045750Y-99250000D01*
X171745750Y-99250000D01*
X171745750Y-99050000D01*
G37*
G36*
X171745750Y-99450000D02*
G01*
X171045750Y-99450000D01*
X171045750Y-99650000D01*
X171745750Y-99650000D01*
X171745750Y-99450000D01*
G37*
G36*
X171745750Y-99850000D02*
G01*
X171045750Y-99850000D01*
X171045750Y-100050000D01*
X171745750Y-100050000D01*
X171745750Y-99850000D01*
G37*
G36*
X171745750Y-100250000D02*
G01*
X171045750Y-100250000D01*
X171045750Y-100450000D01*
X171745750Y-100450000D01*
X171745750Y-100250000D01*
G37*
G36*
X171745750Y-100650000D02*
G01*
X171045750Y-100650000D01*
X171045750Y-100850000D01*
X171745750Y-100850000D01*
X171745750Y-100650000D01*
G37*
G36*
X171745750Y-101050000D02*
G01*
X171045750Y-101050000D01*
X171045750Y-101250000D01*
X171745750Y-101250000D01*
X171745750Y-101050000D01*
G37*
G36*
X171745750Y-101450000D02*
G01*
X171045750Y-101450000D01*
X171045750Y-101650000D01*
X171745750Y-101650000D01*
X171745750Y-101450000D01*
G37*
G36*
X171745750Y-101850000D02*
G01*
X171045750Y-101850000D01*
X171045750Y-102050000D01*
X171745750Y-102050000D01*
X171745750Y-101850000D01*
G37*
G36*
X171745750Y-102250000D02*
G01*
X171045750Y-102250000D01*
X171045750Y-102450000D01*
X171745750Y-102450000D01*
X171745750Y-102250000D01*
G37*
G36*
X171745750Y-102650000D02*
G01*
X171045750Y-102650000D01*
X171045750Y-102850000D01*
X171745750Y-102850000D01*
X171745750Y-102650000D01*
G37*
G36*
X171745750Y-103050000D02*
G01*
X171045750Y-103050000D01*
X171045750Y-103250000D01*
X171745750Y-103250000D01*
X171745750Y-103050000D01*
G37*
G36*
X171745750Y-103450000D02*
G01*
X171045750Y-103450000D01*
X171045750Y-103650000D01*
X171745750Y-103650000D01*
X171745750Y-103450000D01*
G37*
G36*
X171745750Y-103850000D02*
G01*
X171045750Y-103850000D01*
X171045750Y-104050000D01*
X171745750Y-104050000D01*
X171745750Y-103850000D01*
G37*
G36*
X171745750Y-104250000D02*
G01*
X171045750Y-104250000D01*
X171045750Y-104450000D01*
X171745750Y-104450000D01*
X171745750Y-104250000D01*
G37*
G36*
X171745750Y-104650000D02*
G01*
X171045750Y-104650000D01*
X171045750Y-104850000D01*
X171745750Y-104850000D01*
X171745750Y-104650000D01*
G37*
G36*
X171745750Y-105050000D02*
G01*
X171045750Y-105050000D01*
X171045750Y-105250000D01*
X171745750Y-105250000D01*
X171745750Y-105050000D01*
G37*
G36*
X171745750Y-105450000D02*
G01*
X171045750Y-105450000D01*
X171045750Y-105650000D01*
X171745750Y-105650000D01*
X171745750Y-105450000D01*
G37*
G36*
X171745750Y-105850000D02*
G01*
X171045750Y-105850000D01*
X171045750Y-106050000D01*
X171745750Y-106050000D01*
X171745750Y-105850000D01*
G37*
G36*
X171745750Y-106250000D02*
G01*
X171045750Y-106250000D01*
X171045750Y-106450000D01*
X171745750Y-106450000D01*
X171745750Y-106250000D01*
G37*
G36*
X171745750Y-106650000D02*
G01*
X171045750Y-106650000D01*
X171045750Y-106850000D01*
X171745750Y-106850000D01*
X171745750Y-106650000D01*
G37*
G36*
X174125750Y-93650000D02*
G01*
X174825750Y-93650000D01*
X174825750Y-93450000D01*
X174125750Y-93450000D01*
X174125750Y-93650000D01*
G37*
G36*
X174125750Y-94050000D02*
G01*
X174825750Y-94050000D01*
X174825750Y-93850000D01*
X174125750Y-93850000D01*
X174125750Y-94050000D01*
G37*
G36*
X174125750Y-94450000D02*
G01*
X174825750Y-94450000D01*
X174825750Y-94250000D01*
X174125750Y-94250000D01*
X174125750Y-94450000D01*
G37*
G36*
X174125750Y-94850000D02*
G01*
X174825750Y-94850000D01*
X174825750Y-94650000D01*
X174125750Y-94650000D01*
X174125750Y-94850000D01*
G37*
G36*
X174125750Y-95250000D02*
G01*
X174825750Y-95250000D01*
X174825750Y-95050000D01*
X174125750Y-95050000D01*
X174125750Y-95250000D01*
G37*
G36*
X174125750Y-95650000D02*
G01*
X174825750Y-95650000D01*
X174825750Y-95450000D01*
X174125750Y-95450000D01*
X174125750Y-95650000D01*
G37*
G36*
X174125750Y-96050000D02*
G01*
X174825750Y-96050000D01*
X174825750Y-95850000D01*
X174125750Y-95850000D01*
X174125750Y-96050000D01*
G37*
G36*
X174125750Y-96450000D02*
G01*
X174825750Y-96450000D01*
X174825750Y-96250000D01*
X174125750Y-96250000D01*
X174125750Y-96450000D01*
G37*
G36*
X174125750Y-96850000D02*
G01*
X174825750Y-96850000D01*
X174825750Y-96650000D01*
X174125750Y-96650000D01*
X174125750Y-96850000D01*
G37*
G36*
X174125750Y-97250000D02*
G01*
X174825750Y-97250000D01*
X174825750Y-97050000D01*
X174125750Y-97050000D01*
X174125750Y-97250000D01*
G37*
G36*
X174125750Y-97650000D02*
G01*
X174825750Y-97650000D01*
X174825750Y-97450000D01*
X174125750Y-97450000D01*
X174125750Y-97650000D01*
G37*
G36*
X174125750Y-98050000D02*
G01*
X174825750Y-98050000D01*
X174825750Y-97850000D01*
X174125750Y-97850000D01*
X174125750Y-98050000D01*
G37*
G36*
X174125750Y-98450000D02*
G01*
X174825750Y-98450000D01*
X174825750Y-98250000D01*
X174125750Y-98250000D01*
X174125750Y-98450000D01*
G37*
G36*
X174125750Y-98850000D02*
G01*
X174825750Y-98850000D01*
X174825750Y-98650000D01*
X174125750Y-98650000D01*
X174125750Y-98850000D01*
G37*
G36*
X174125750Y-99250000D02*
G01*
X174825750Y-99250000D01*
X174825750Y-99050000D01*
X174125750Y-99050000D01*
X174125750Y-99250000D01*
G37*
G36*
X174125750Y-99650000D02*
G01*
X174825750Y-99650000D01*
X174825750Y-99450000D01*
X174125750Y-99450000D01*
X174125750Y-99650000D01*
G37*
G36*
X174125750Y-100050000D02*
G01*
X174825750Y-100050000D01*
X174825750Y-99850000D01*
X174125750Y-99850000D01*
X174125750Y-100050000D01*
G37*
G36*
X174125750Y-100450000D02*
G01*
X174825750Y-100450000D01*
X174825750Y-100250000D01*
X174125750Y-100250000D01*
X174125750Y-100450000D01*
G37*
G36*
X174125750Y-100850000D02*
G01*
X174825750Y-100850000D01*
X174825750Y-100650000D01*
X174125750Y-100650000D01*
X174125750Y-100850000D01*
G37*
G36*
X174125750Y-101250000D02*
G01*
X174825750Y-101250000D01*
X174825750Y-101050000D01*
X174125750Y-101050000D01*
X174125750Y-101250000D01*
G37*
G36*
X174125750Y-101650000D02*
G01*
X174825750Y-101650000D01*
X174825750Y-101450000D01*
X174125750Y-101450000D01*
X174125750Y-101650000D01*
G37*
G36*
X174125750Y-102050000D02*
G01*
X174825750Y-102050000D01*
X174825750Y-101850000D01*
X174125750Y-101850000D01*
X174125750Y-102050000D01*
G37*
G36*
X174125750Y-102450000D02*
G01*
X174825750Y-102450000D01*
X174825750Y-102250000D01*
X174125750Y-102250000D01*
X174125750Y-102450000D01*
G37*
G36*
X174125750Y-102850000D02*
G01*
X174825750Y-102850000D01*
X174825750Y-102650000D01*
X174125750Y-102650000D01*
X174125750Y-102850000D01*
G37*
G36*
X174125750Y-103250000D02*
G01*
X174825750Y-103250000D01*
X174825750Y-103050000D01*
X174125750Y-103050000D01*
X174125750Y-103250000D01*
G37*
G36*
X174125750Y-103650000D02*
G01*
X174825750Y-103650000D01*
X174825750Y-103450000D01*
X174125750Y-103450000D01*
X174125750Y-103650000D01*
G37*
G36*
X174125750Y-104050000D02*
G01*
X174825750Y-104050000D01*
X174825750Y-103850000D01*
X174125750Y-103850000D01*
X174125750Y-104050000D01*
G37*
G36*
X174125750Y-104450000D02*
G01*
X174825750Y-104450000D01*
X174825750Y-104250000D01*
X174125750Y-104250000D01*
X174125750Y-104450000D01*
G37*
G36*
X174125750Y-104850000D02*
G01*
X174825750Y-104850000D01*
X174825750Y-104650000D01*
X174125750Y-104650000D01*
X174125750Y-104850000D01*
G37*
G36*
X174125750Y-105250000D02*
G01*
X174825750Y-105250000D01*
X174825750Y-105050000D01*
X174125750Y-105050000D01*
X174125750Y-105250000D01*
G37*
G36*
X174125750Y-105650000D02*
G01*
X174825750Y-105650000D01*
X174825750Y-105450000D01*
X174125750Y-105450000D01*
X174125750Y-105650000D01*
G37*
G36*
X174125750Y-106050000D02*
G01*
X174825750Y-106050000D01*
X174825750Y-105850000D01*
X174125750Y-105850000D01*
X174125750Y-106050000D01*
G37*
G36*
X174125750Y-106450000D02*
G01*
X174825750Y-106450000D01*
X174825750Y-106250000D01*
X174125750Y-106250000D01*
X174125750Y-106450000D01*
G37*
G36*
X174125750Y-106850000D02*
G01*
X174825750Y-106850000D01*
X174825750Y-106650000D01*
X174125750Y-106650000D01*
X174125750Y-106850000D01*
G37*
G04 #@! TD*
D11*
G04 #@! TO.C,R3*
X119760000Y-123050000D03*
X120780000Y-123050000D03*
G04 #@! TD*
D12*
G04 #@! TO.C,R4*
X139225000Y-112700000D03*
X139225000Y-114350000D03*
G04 #@! TD*
D13*
G04 #@! TO.C,J1*
X136986500Y-106761500D03*
X140066500Y-106761500D03*
X136986500Y-106361500D03*
X140066500Y-106361500D03*
X136986500Y-105961500D03*
X140066500Y-105961500D03*
X136986500Y-105561500D03*
X140066500Y-105561500D03*
X136986500Y-105161500D03*
X140066500Y-105161500D03*
X136986500Y-104761500D03*
X140066500Y-104761500D03*
X136986500Y-104361500D03*
X140066500Y-104361500D03*
X136986500Y-103961500D03*
X140066500Y-103961500D03*
X136986500Y-103561500D03*
X140066500Y-103561500D03*
X136986500Y-103161500D03*
X140066500Y-103161500D03*
X136986500Y-102761500D03*
X140066500Y-102761500D03*
X136986500Y-102361500D03*
X140066500Y-102361500D03*
X136986500Y-101961500D03*
X140066500Y-101961500D03*
X136986500Y-101561500D03*
X140066500Y-101561500D03*
X136986500Y-101161500D03*
X140066500Y-101161500D03*
X136986500Y-100761500D03*
X140066500Y-100761500D03*
X136986500Y-100361500D03*
X140066500Y-100361500D03*
X136986500Y-99961500D03*
X140066500Y-99961500D03*
X136986500Y-99561500D03*
X140066500Y-99561500D03*
X136986500Y-99161500D03*
X140066500Y-99161500D03*
X136986500Y-98761500D03*
X140066500Y-98761500D03*
X136986500Y-98361500D03*
X140066500Y-98361500D03*
X136986500Y-97961500D03*
X140066500Y-97961500D03*
X136986500Y-97561500D03*
X140066500Y-97561500D03*
X136986500Y-97161500D03*
X140066500Y-97161500D03*
X136986500Y-96761500D03*
X140066500Y-96761500D03*
X136986500Y-96361500D03*
X140066500Y-96361500D03*
X136986500Y-95961500D03*
X140066500Y-95961500D03*
X136986500Y-95561500D03*
X140066500Y-95561500D03*
X136986500Y-95161500D03*
X140066500Y-95161500D03*
X136986500Y-94761500D03*
X140066500Y-94761500D03*
X136986500Y-94361500D03*
X140066500Y-94361500D03*
X136986500Y-93961500D03*
X140066500Y-93961500D03*
X136986500Y-93561500D03*
X140066500Y-93561500D03*
X136986500Y-93161500D03*
X140066500Y-93161500D03*
G04 #@! TD*
D11*
G04 #@! TO.C,R1*
X119760000Y-124550000D03*
X120780000Y-124550000D03*
G04 #@! TD*
D14*
G04 #@! TO.C,U1*
X119665000Y-131775000D03*
X120935000Y-131775000D03*
X122205000Y-131775000D03*
X123475000Y-131775000D03*
X123475000Y-126825000D03*
X122205000Y-126825000D03*
X120935000Y-126825000D03*
X119665000Y-126825000D03*
G04 #@! TD*
D11*
G04 #@! TO.C,R2*
X119750000Y-121800000D03*
X120770000Y-121800000D03*
G04 #@! TD*
D15*
G04 #@! TO.C,C1*
X117870000Y-126880000D03*
X117870000Y-125920000D03*
G04 #@! TD*
D16*
G04 #@! TO.C,J5*
X174475750Y-93150000D03*
X171395750Y-93150000D03*
X174475750Y-93550000D03*
X171395750Y-93550000D03*
X174475750Y-93950000D03*
X171395750Y-93950000D03*
X174475750Y-94350000D03*
X171395750Y-94350000D03*
X174475750Y-94750000D03*
X171395750Y-94750000D03*
X174475750Y-95150000D03*
X171395750Y-95150000D03*
X174475750Y-95550000D03*
X171395750Y-95550000D03*
X174475750Y-95950000D03*
X171395750Y-95950000D03*
X174475750Y-96350000D03*
X171395750Y-96350000D03*
X174475750Y-96750000D03*
X171395750Y-96750000D03*
X174475750Y-97150000D03*
X171395750Y-97150000D03*
X174475750Y-97550000D03*
X171395750Y-97550000D03*
X174475750Y-97950000D03*
X171395750Y-97950000D03*
X174475750Y-98350000D03*
X171395750Y-98350000D03*
X174475750Y-98750000D03*
X171395750Y-98750000D03*
X174475750Y-99150000D03*
X171395750Y-99150000D03*
X174475750Y-99550000D03*
X171395750Y-99550000D03*
X174475750Y-99950000D03*
X171395750Y-99950000D03*
X174475750Y-100350000D03*
X171395750Y-100350000D03*
X174475750Y-100750000D03*
X171395750Y-100750000D03*
X174475750Y-101150000D03*
X171395750Y-101150000D03*
X174475750Y-101550000D03*
X171395750Y-101550000D03*
X174475750Y-101950000D03*
X171395750Y-101950000D03*
X174475750Y-102350000D03*
X171395750Y-102350000D03*
X174475750Y-102750000D03*
X171395750Y-102750000D03*
X174475750Y-103150000D03*
X171395750Y-103150000D03*
X174475750Y-103550000D03*
X171395750Y-103550000D03*
X174475750Y-103950000D03*
X171395750Y-103950000D03*
X174475750Y-104350000D03*
X171395750Y-104350000D03*
X174475750Y-104750000D03*
X171395750Y-104750000D03*
X174475750Y-105150000D03*
X171395750Y-105150000D03*
X174475750Y-105550000D03*
X171395750Y-105550000D03*
X174475750Y-105950000D03*
X171395750Y-105950000D03*
X174475750Y-106350000D03*
X171395750Y-106350000D03*
X174475750Y-106750000D03*
X171395750Y-106750000D03*
G04 #@! TD*
D12*
G04 #@! TO.C,R5*
X172950750Y-112700000D03*
X172950750Y-114350000D03*
G04 #@! TD*
D17*
G04 #@! TO.C,J2*
X118080000Y-81935000D03*
X118080000Y-118065000D03*
G04 #@! TD*
G04 #@! TO.C,J3*
X188080750Y-81935000D03*
X188080750Y-118065000D03*
G04 #@! TD*
M02*
