G04 #@! TF.GenerationSoftware,KiCad,Pcbnew,9.0.0*
G04 #@! TF.CreationDate,2025-04-07T23:04:34+01:00*
G04 #@! TF.ProjectId,ephys-test-module-128,65706879-732d-4746-9573-742d6d6f6475,A*
G04 #@! TF.SameCoordinates,Original*
G04 #@! TF.FileFunction,Legend,Bot*
G04 #@! TF.FilePolarity,Positive*
%FSLAX46Y46*%
G04 Gerber Fmt 4.6, Leading zero omitted, Abs format (unit mm)*
G04 Created by KiCad (PCBNEW 9.0.0) date 2025-04-07 23:04:34*
%MOMM*%
%LPD*%
G01*
G04 APERTURE LIST*
%ADD10C,0.150000*%
%ADD11C,0.200000*%
G04 APERTURE END LIST*
D10*
X121283333Y-119654819D02*
X121283333Y-120369104D01*
X121283333Y-120369104D02*
X121330952Y-120511961D01*
X121330952Y-120511961D02*
X121426190Y-120607200D01*
X121426190Y-120607200D02*
X121569047Y-120654819D01*
X121569047Y-120654819D02*
X121664285Y-120654819D01*
X120854761Y-119750057D02*
X120807142Y-119702438D01*
X120807142Y-119702438D02*
X120711904Y-119654819D01*
X120711904Y-119654819D02*
X120473809Y-119654819D01*
X120473809Y-119654819D02*
X120378571Y-119702438D01*
X120378571Y-119702438D02*
X120330952Y-119750057D01*
X120330952Y-119750057D02*
X120283333Y-119845295D01*
X120283333Y-119845295D02*
X120283333Y-119940533D01*
X120283333Y-119940533D02*
X120330952Y-120083390D01*
X120330952Y-120083390D02*
X120902380Y-120654819D01*
X120902380Y-120654819D02*
X120283333Y-120654819D01*
X191284083Y-119654819D02*
X191284083Y-120369104D01*
X191284083Y-120369104D02*
X191331702Y-120511961D01*
X191331702Y-120511961D02*
X191426940Y-120607200D01*
X191426940Y-120607200D02*
X191569797Y-120654819D01*
X191569797Y-120654819D02*
X191665035Y-120654819D01*
X190903130Y-119654819D02*
X190284083Y-119654819D01*
X190284083Y-119654819D02*
X190617416Y-120035771D01*
X190617416Y-120035771D02*
X190474559Y-120035771D01*
X190474559Y-120035771D02*
X190379321Y-120083390D01*
X190379321Y-120083390D02*
X190331702Y-120131009D01*
X190331702Y-120131009D02*
X190284083Y-120226247D01*
X190284083Y-120226247D02*
X190284083Y-120464342D01*
X190284083Y-120464342D02*
X190331702Y-120559580D01*
X190331702Y-120559580D02*
X190379321Y-120607200D01*
X190379321Y-120607200D02*
X190474559Y-120654819D01*
X190474559Y-120654819D02*
X190760273Y-120654819D01*
X190760273Y-120654819D02*
X190855511Y-120607200D01*
X190855511Y-120607200D02*
X190903130Y-120559580D01*
D11*
G04 #@! TO.C,J2*
X117130500Y-81365000D02*
X117130500Y-83845000D01*
X117130500Y-118635000D02*
X117130500Y-116155000D01*
X119350000Y-81365000D02*
X124369500Y-81365000D01*
X119350000Y-118635000D02*
X124369500Y-118635000D01*
X124369500Y-81365000D02*
X124369500Y-83845000D01*
X124369500Y-118635000D02*
X124369500Y-116155000D01*
X125450000Y-84400000D02*
G75*
G02*
X125250000Y-84400000I-100000J0D01*
G01*
X125250000Y-84400000D02*
G75*
G02*
X125450000Y-84400000I100000J0D01*
G01*
G04 #@! TO.C,J3*
X187131250Y-81365000D02*
X187131250Y-83845000D01*
X187131250Y-118635000D02*
X187131250Y-116155000D01*
X189350750Y-81365000D02*
X194370250Y-81365000D01*
X189350750Y-118635000D02*
X194370250Y-118635000D01*
X194370250Y-81365000D02*
X194370250Y-83845000D01*
X194370250Y-118635000D02*
X194370250Y-116155000D01*
X195450750Y-84400000D02*
G75*
G02*
X195250750Y-84400000I-100000J0D01*
G01*
X195250750Y-84400000D02*
G75*
G02*
X195450750Y-84400000I100000J0D01*
G01*
G04 #@! TD*
M02*
